<svg width="90" height="34" viewBox="0 0 90 34" fill="none" xmlns="http://www.w3.org/2000/svg">
<path d="M9.11342 9.00024C9.11342 4.44593 12.814 0.740723 17.4105 0.740723C22.0071 0.740723 25.7466 4.44593 25.7466 9.00024H9.11342ZM9.11342 25.4807C9.11342 20.9264 12.853 17.2212 17.4495 17.2212C12.853 17.2212 9.11342 13.516 9.11342 8.96165C4.51689 9.00024 0.777344 12.6669 0.777344 17.2212C0.777344 21.7755 4.51689 25.4807 9.11342 25.4807ZM9.11342 25.4807C9.11342 30.035 12.853 33.7402 17.4495 33.7402C22.046 33.7402 25.7856 30.035 25.7856 25.4807H9.11342ZM17.4105 17.2212C22.0071 17.2212 25.7466 20.9264 25.7466 25.4807C30.3432 25.4807 34.0827 21.7755 34.0827 17.2212C34.0827 12.6669 30.3432 8.96165 25.7466 8.96165C25.7466 13.5546 22.0071 17.2212 17.4105 17.2212Z" fill="#1C938A"/>
<path d="M55.0789 9.00064H60.2208V25.4811H56.4033V14.4041L51.4951 25.4811L46.3533 14.3655V25.4811H42.7695V9.00064H47.8725L51.5341 17.5303L55.0789 9.00064ZM73.8156 13.8637C73.8156 10.6217 71.2836 8.73047 68.2452 8.73047C65.2068 8.73047 61.9737 10.4673 61.9737 13.8637C61.9737 16.797 65.2458 18.3023 67.0766 18.7654C68.0894 19.0356 70.6603 19.3057 70.6603 21.1583C70.6603 22.8952 68.8685 23.3583 67.5051 23.3583C65.7522 23.3583 64.7394 22.1618 64.8952 20.3478H61.5452C61.4283 24.439 64.233 25.9828 67.544 26.06C71.3615 26.1372 74.2441 24.5548 74.2441 20.9268C74.2441 17.2988 70.933 16.7198 68.3621 15.8707C67.3882 15.5233 65.5184 15.2532 65.5184 13.555C65.5184 12.1269 66.765 11.4708 68.0115 11.4708C69.6086 11.4708 70.4656 12.2813 70.5824 13.9023L73.8156 13.8637ZM81.022 8.96204H75.7243V25.4425H81.022C85.4238 25.4425 89.9034 22.9338 89.9034 17.2216C89.9034 11.5094 85.4238 8.96204 81.022 8.96204ZM80.7883 22.432H79.308V12.0111H80.7883C84.8395 12.0111 86.2807 14.6356 86.2807 17.2216C86.2807 19.8075 84.8005 22.432 80.7883 22.432Z" fill="black"/>
</svg>
