<svg width="50" height="50" viewBox="0 0 50 50" fill="none" xmlns="http://www.w3.org/2000/svg">
<path d="M0.480976 0.555664H49.3359V49.4446H0.480976V0.555664Z" fill="black"/>
<path d="M21.0777 38.4054C22.0157 38.3272 22.8853 38.8845 23.198 39.7743C23.4227 38.8259 24.2826 38.4054 25.2206 38.4054C26.3736 38.4054 27.4386 39.0899 27.4386 40.1556V37.1147H28.9531V42.6881H27.4386V41.1725C27.4386 42.297 26.4224 42.8739 25.2695 42.8739C24.351 42.9423 23.5107 42.385 23.2078 41.5147C22.8951 42.3947 22.0255 42.9521 21.0972 42.8739C19.8759 42.9325 18.8304 41.9841 18.7717 40.7619C18.7131 39.5396 19.6609 38.4934 20.8823 38.4347C20.9507 38.4347 21.0191 38.4347 21.0972 38.4347L21.0777 38.4054ZM24.5757 41.1432C24.6148 41.6516 24.8298 41.7396 25.2304 41.7396C25.7385 41.7396 25.9143 41.329 25.9143 40.6543C25.9143 40.1459 25.7873 39.5201 25.2011 39.5201C24.8298 39.5201 24.6148 39.6276 24.6148 40.1361H23.2957C23.325 40.3023 23.3348 40.4685 23.325 40.6445C23.325 40.8107 23.3153 40.9867 23.2859 41.153L24.5757 41.1432ZM21.0777 41.7005C21.6933 41.7005 21.7714 41.0845 21.7714 40.625C21.7714 40.1654 21.6835 39.5592 21.0777 39.5592C20.4719 39.5592 20.384 40.1752 20.384 40.625C20.384 41.0845 20.4817 41.7005 21.0777 41.7005Z" fill="white"/>
<path d="M9.97953 38.4832C11.0837 38.4832 11.7188 39.0796 12.2269 39.9988V39.813C12.2269 39.1285 12.4711 38.3854 13.5264 38.3854C13.9466 38.3659 14.3667 38.5223 14.6696 38.8156C14.6696 38.8156 14.6696 38.8645 14.7087 38.8939C14.7478 38.9232 14.8162 39.0405 14.8455 39.0699C15.0507 38.6592 15.4806 38.405 15.9301 38.4148C16.4772 38.3756 16.9951 38.6494 17.2785 39.109V38.6005H18.793V42.6485H17.2785V40.4388C17.2785 39.989 17.1808 39.6565 16.7704 39.6565C16.2623 39.6565 16.2623 40.0379 16.2623 40.4388V42.6681H14.7478V40.4583C14.7478 40.0085 14.6501 39.6761 14.2397 39.6761C13.7316 39.6761 13.7316 40.0574 13.7316 40.4583V42.6681H12.2171V41.2992C11.709 42.3161 10.9957 42.9125 9.90137 42.9125C8.94381 42.9125 7.97648 42.6681 7.64427 41.661H9.10991C9.23694 41.661 9.53007 41.9836 9.78411 41.9836C10.2238 42.0032 10.5951 41.661 10.6049 41.221C10.6049 41.2014 10.6049 41.1721 10.6049 41.1525H7.5661C7.5661 39.1188 8.38686 38.4832 9.97953 38.4832ZM10.6049 40.1356C10.5951 39.7152 10.2531 39.373 9.8232 39.3828C9.81343 39.3828 9.80365 39.3828 9.79388 39.3828C9.42259 39.3436 9.09037 39.6174 9.05129 39.989C9.04152 40.0379 9.05129 40.0868 9.05129 40.1356H10.6049Z" fill="white"/>
<path d="M29.4424 42.6681V37.0947H30.9569V39.8618C31.465 38.9232 31.9731 38.4049 33.1261 38.4049C33.9566 38.3952 34.7188 38.8645 35.0998 39.6076L34.7774 38.5907H36.3994L36.9856 41.1232H37.015L37.5719 38.5907H39.0375L39.5456 41.1232L40.171 38.5907H41.793L40.5032 42.6387H38.9008L38.2754 40.1063L37.6696 42.6387H36.0769L35.3148 40.2334C35.3343 40.3507 35.3441 40.4681 35.3441 40.5952C35.4027 41.7685 34.494 42.7658 33.3215 42.8147C33.2336 42.8147 33.1359 42.8147 33.0479 42.8049C32.1783 42.8343 31.3673 42.3845 30.9472 41.6316V42.6485L29.4424 42.6681ZM33.0772 39.3827C32.7059 39.3436 32.3737 39.6076 32.3249 39.9792C32.3151 40.0281 32.3151 40.0769 32.3249 40.1258H33.8785C33.8687 39.7054 33.5267 39.3632 33.0968 39.3729C33.087 39.3827 33.087 39.3827 33.0772 39.3827ZM32.3835 41.6512C32.5203 41.6512 32.8037 41.9738 33.0577 41.9738C33.4974 41.9934 33.8687 41.6512 33.8785 41.2112C33.8785 41.1916 33.8785 41.1623 33.8785 41.1427H30.9569V41.6512H32.3835Z" fill="white"/>
<path d="M24.9184 20.5606C23.9022 24.3348 23.1694 27.1117 22.8958 28.2068C22.4464 29.8397 21.3813 30.8762 19.5151 31.4237C16.9844 32.1668 14.1117 33.0273 14.1117 33.0273L7.99508 9.72683L15.3331 8.92505L18.5771 21.3526C19.818 16.6202 20.9612 12.3375 21.1566 11.6335C21.6647 9.81483 22.8665 8.83705 24.6448 8.83705C26.5795 8.83705 27.9768 8.72949 27.9768 8.72949L31.2598 21.2548L34.5233 8.87616L41.8516 9.75616C41.8516 9.75616 37.8064 25.1073 37.0833 27.8939C36.6143 29.6735 35.6665 30.8859 33.8687 31.3748C32.0708 31.8637 28.1722 33.0273 28.1722 33.0273L24.9184 20.5606Z" fill="white"/>
</svg>
