<svg width="18" height="18" viewBox="0 0 18 18" fill="none" xmlns="http://www.w3.org/2000/svg">
<path d="M17.4457 2.48926H1.08203V17.3653H17.4457V2.48926Z" fill="#4F4F4F" stroke="#F5F5F5" stroke-miterlimit="10" stroke-linecap="round" stroke-linejoin="round"/>
<path d="M5.29688 1.00195V4.91931" stroke="#F5F5F5" stroke-miterlimit="10" stroke-linecap="round" stroke-linejoin="round"/>
<path d="M13.2305 1.00195V4.91931" stroke="#F5F5F5" stroke-miterlimit="10" stroke-linecap="round" stroke-linejoin="round"/>
<path d="M4.80101 7.94479C5.07512 7.94479 5.29732 7.72258 5.29732 7.44847C5.29732 7.17436 5.07512 6.95215 4.80101 6.95215C4.5269 6.95215 4.30469 7.17436 4.30469 7.44847C4.30469 7.72258 4.5269 7.94479 4.80101 7.94479Z" fill="#4F4F4F" stroke="#F5F5F5" stroke-miterlimit="10" stroke-linecap="round" stroke-linejoin="round"/>
<path d="M9.26194 7.94479C9.53605 7.94479 9.75826 7.72258 9.75826 7.44847C9.75826 7.17436 9.53605 6.95215 9.26194 6.95215C8.98783 6.95215 8.76562 7.17436 8.76562 7.44847C8.76562 7.72258 8.98783 7.94479 9.26194 7.94479Z" fill="#4F4F4F" stroke="#F5F5F5" stroke-miterlimit="10" stroke-linecap="round" stroke-linejoin="round"/>
<path d="M13.7268 7.94479C14.0009 7.94479 14.2231 7.72258 14.2231 7.44847C14.2231 7.17436 14.0009 6.95215 13.7268 6.95215C13.4527 6.95215 13.2305 7.17436 13.2305 7.44847C13.2305 7.72258 13.4527 7.94479 13.7268 7.94479Z" fill="#4F4F4F" stroke="#F5F5F5" stroke-miterlimit="10" stroke-linecap="round" stroke-linejoin="round"/>
<path d="M4.80101 11.4165C5.07512 11.4165 5.29732 11.1943 5.29732 10.9201C5.29732 10.646 5.07512 10.4238 4.80101 10.4238C4.5269 10.4238 4.30469 10.646 4.30469 10.9201C4.30469 11.1943 4.5269 11.4165 4.80101 11.4165Z" fill="#4F4F4F" stroke="#F5F5F5" stroke-miterlimit="10" stroke-linecap="round" stroke-linejoin="round"/>
<path d="M9.26194 11.4165C9.53605 11.4165 9.75826 11.1943 9.75826 10.9201C9.75826 10.646 9.53605 10.4238 9.26194 10.4238C8.98783 10.4238 8.76562 10.646 8.76562 10.9201C8.76562 11.1943 8.98783 11.4165 9.26194 11.4165Z" fill="#4F4F4F" stroke="#F5F5F5" stroke-miterlimit="10" stroke-linecap="round" stroke-linejoin="round"/>
<path d="M13.7268 11.4165C14.0009 11.4165 14.2231 11.1943 14.2231 10.9201C14.2231 10.646 14.0009 10.4238 13.7268 10.4238C13.4527 10.4238 13.2305 10.646 13.2305 10.9201C13.2305 11.1943 13.4527 11.4165 13.7268 11.4165Z" fill="#4F4F4F" stroke="#F5F5F5" stroke-miterlimit="10" stroke-linecap="round" stroke-linejoin="round"/>
<path d="M4.80101 14.8872C5.07512 14.8872 5.29732 14.665 5.29732 14.3908C5.29732 14.1167 5.07512 13.8945 4.80101 13.8945C4.5269 13.8945 4.30469 14.1167 4.30469 14.3908C4.30469 14.665 4.5269 14.8872 4.80101 14.8872Z" fill="#4F4F4F" stroke="#F5F5F5" stroke-miterlimit="10" stroke-linecap="round" stroke-linejoin="round"/>
<path d="M9.26194 14.8872C9.53605 14.8872 9.75826 14.665 9.75826 14.3908C9.75826 14.1167 9.53605 13.8945 9.26194 13.8945C8.98783 13.8945 8.76562 14.1167 8.76562 14.3908C8.76562 14.665 8.98783 14.8872 9.26194 14.8872Z" fill="#4F4F4F" stroke="#F5F5F5" stroke-miterlimit="10" stroke-linecap="round" stroke-linejoin="round"/>
<path d="M13.7268 14.8872C14.0009 14.8872 14.2231 14.665 14.2231 14.3908C14.2231 14.1167 14.0009 13.8945 13.7268 13.8945C13.4527 13.8945 13.2305 14.1167 13.2305 14.3908C13.2305 14.665 13.4527 14.8872 13.7268 14.8872Z" fill="#4F4F4F" stroke="#F5F5F5" stroke-miterlimit="10" stroke-linecap="round" stroke-linejoin="round"/>
<path d="M1.08203 3.92676H17.4457" stroke="#F5F5F5" stroke-miterlimit="10" stroke-linecap="round" stroke-linejoin="round"/>
</svg>
