<svg width="244" height="244" viewBox="0 0 244 244" fill="none" xmlns="http://www.w3.org/2000/svg">
<g style="mix-blend-mode:multiply" opacity="0.3">
<path opacity="0.02" d="M168.824 240.787C208.568 240.787 240.786 208.569 240.786 168.825C240.786 129.082 208.568 96.8643 168.824 96.8643C129.081 96.8643 96.8633 129.082 96.8633 168.825C96.8633 208.569 129.081 240.787 168.824 240.787Z" fill="#FAFAFA"/>
<path opacity="0.04" d="M167.485 239.449C207.228 239.449 239.446 207.231 239.446 167.488C239.446 127.745 207.228 95.5269 167.485 95.5269C127.742 95.5269 95.5234 127.745 95.5234 167.488C95.5234 207.231 127.742 239.449 167.485 239.449Z" fill="#F5F5F5"/>
<path opacity="0.06" d="M166.145 238.106C205.888 238.106 238.106 205.888 238.106 166.145C238.106 126.402 205.888 94.1836 166.145 94.1836C126.402 94.1836 94.1836 126.402 94.1836 166.145C94.1836 205.888 126.402 238.106 166.145 238.106Z" fill="#F0F0F0"/>
<path opacity="0.08" d="M164.801 236.769C204.544 236.769 236.762 204.55 236.762 164.807C236.762 125.064 204.544 92.8462 164.801 92.8462C125.058 92.8462 92.8398 125.064 92.8398 164.807C92.8398 204.55 125.058 236.769 164.801 236.769Z" fill="#EBEBEB"/>
<path opacity="0.1" d="M163.465 235.425C203.208 235.425 235.426 203.207 235.426 163.464C235.426 123.721 203.208 91.5029 163.465 91.5029C123.722 91.5029 91.5039 123.721 91.5039 163.464C91.5039 203.207 123.722 235.425 163.465 235.425Z" fill="#E6E6E6"/>
<path opacity="0.12" d="M162.121 234.083C201.864 234.083 234.083 201.864 234.083 162.121C234.083 122.378 201.864 90.1602 162.121 90.1602C122.378 90.1602 90.1602 122.378 90.1602 162.121C90.1602 201.864 122.378 234.083 162.121 234.083Z" fill="#E1E1E1"/>
<path opacity="0.14" d="M160.778 232.745C200.521 232.745 232.739 200.527 232.739 160.784C232.739 121.04 200.521 88.8223 160.778 88.8223C121.035 88.8223 88.8164 121.04 88.8164 160.784C88.8164 200.527 121.035 232.745 160.778 232.745Z" fill="#DCDCDC"/>
<path opacity="0.16" d="M159.442 231.402C199.185 231.402 231.403 199.184 231.403 159.441C231.403 119.698 199.185 87.4795 159.442 87.4795C119.699 87.4795 87.4805 119.698 87.4805 159.441C87.4805 199.184 119.699 231.402 159.442 231.402Z" fill="#D7D7D7"/>
<path opacity="0.18" d="M158.098 230.059C197.841 230.059 230.059 197.841 230.059 158.097C230.059 118.354 197.841 86.1362 158.098 86.1362C118.355 86.1362 86.1367 118.354 86.1367 158.097C86.1367 197.841 118.355 230.059 158.098 230.059Z" fill="#D2D2D2"/>
<path opacity="0.2" d="M156.754 228.721C196.497 228.721 228.715 196.503 228.715 156.76C228.715 117.017 196.497 84.7988 156.754 84.7988C117.011 84.7988 84.793 117.017 84.793 156.76C84.793 196.503 117.011 228.721 156.754 228.721Z" fill="#CDCDCD"/>
<path opacity="0.22" d="M155.414 227.378C195.157 227.378 227.376 195.16 227.376 155.417C227.376 115.674 195.157 83.4556 155.414 83.4556C115.671 83.4556 83.4531 115.674 83.4531 155.417C83.4531 195.16 115.671 227.378 155.414 227.378Z" fill="#C8C8C8"/>
<path opacity="0.24" d="M154.074 226.035C193.818 226.035 226.036 193.817 226.036 154.074C226.036 114.331 193.818 82.1125 154.074 82.1125C114.331 82.1125 82.1133 114.331 82.1133 154.074C82.1133 193.817 114.331 226.035 154.074 226.035Z" fill="#C3C3C3"/>
<path opacity="0.25" d="M152.731 224.698C192.474 224.698 224.692 192.479 224.692 152.736C224.692 112.993 192.474 80.7751 152.731 80.7751C112.988 80.7751 80.7695 112.993 80.7695 152.736C80.7695 192.479 112.988 224.698 152.731 224.698Z" fill="#BEBEBE"/>
<path opacity="0.27" d="M151.395 223.354C191.138 223.354 223.356 191.136 223.356 151.393C223.356 111.65 191.138 79.4319 151.395 79.4319C111.652 79.4319 79.4336 111.65 79.4336 151.393C79.4336 191.136 111.652 223.354 151.395 223.354Z" fill="#B9B9B9"/>
<path opacity="0.29" d="M150.051 222.011C189.794 222.011 222.012 189.793 222.012 150.05C222.012 110.307 189.794 78.0889 150.051 78.0889C110.308 78.0889 78.0898 110.307 78.0898 150.05C78.0898 189.793 110.308 222.011 150.051 222.011Z" fill="#B4B4B4"/>
<path opacity="0.31" d="M148.707 220.674C188.45 220.674 220.668 188.456 220.668 148.713C220.668 108.97 188.45 76.7515 148.707 76.7515C108.964 76.7515 76.7461 108.97 76.7461 148.713C76.7461 188.456 108.964 220.674 148.707 220.674Z" fill="#AFAFAF"/>
<path opacity="0.33" d="M147.371 219.331C187.114 219.331 219.333 187.112 219.333 147.369C219.333 107.626 187.114 75.4082 147.371 75.4082C107.628 75.4082 75.4102 107.626 75.4102 147.369C75.4102 187.112 107.628 219.331 147.371 219.331Z" fill="#AAAAAA"/>
<path opacity="0.35" d="M146.028 217.988C185.771 217.988 217.989 185.77 217.989 146.027C217.989 106.284 185.771 74.0654 146.028 74.0654C106.285 74.0654 74.0664 106.284 74.0664 146.027C74.0664 185.77 106.285 217.988 146.028 217.988Z" fill="#A5A5A5"/>
<path opacity="0.37" d="M144.684 216.65C184.427 216.65 216.645 184.432 216.645 144.689C216.645 104.946 184.427 72.7278 144.684 72.7278C104.941 72.7278 72.7227 104.946 72.7227 144.689C72.7227 184.432 104.941 216.65 144.684 216.65Z" fill="#A0A0A0"/>
<path opacity="0.39" d="M143.348 215.307C183.091 215.307 215.309 183.089 215.309 143.346C215.309 103.603 183.091 71.3848 143.348 71.3848C103.605 71.3848 71.3867 103.603 71.3867 143.346C71.3867 183.089 103.605 215.307 143.348 215.307Z" fill="#9B9B9B"/>
<path opacity="0.41" d="M192.891 192.888C220.994 164.785 220.994 119.222 192.891 91.1192C164.788 63.0166 119.225 63.0166 91.1225 91.1192C63.0199 119.222 63.0199 164.785 91.1225 192.888C119.225 220.99 164.788 220.99 192.891 192.888Z" fill="#969696"/>
<path opacity="0.43" d="M191.547 191.55C219.65 163.448 219.65 117.884 191.547 89.7818C163.445 61.6792 117.881 61.6792 89.7788 89.7818C61.6762 117.884 61.6762 163.448 89.7788 191.55C117.881 219.653 163.445 219.653 191.547 191.55Z" fill="#919191"/>
<path opacity="0.45" d="M190.211 190.207C218.314 162.105 218.314 116.541 190.211 88.4388C162.109 60.3362 116.545 60.3362 88.4428 88.4387C60.3402 116.541 60.3403 162.105 88.4429 190.207C116.545 218.31 162.109 218.31 190.211 190.207Z" fill="#8C8C8C"/>
<path opacity="0.47" d="M188.868 188.864C216.97 160.762 216.97 115.198 188.868 87.0958C160.765 58.9932 115.202 58.9931 87.0991 87.0957C58.9965 115.198 58.9965 160.762 87.0991 188.864C115.202 216.967 160.765 216.967 188.868 188.864Z" fill="#878787"/>
<path opacity="0.49" d="M187.524 187.527C215.626 159.424 215.626 113.861 187.524 85.7584C159.421 57.6558 113.858 57.6557 85.7553 85.7583C57.6527 113.861 57.6528 159.424 85.7554 187.527C113.858 215.629 159.421 215.629 187.524 187.527Z" fill="#828282"/>
<path opacity="0.51" d="M186.188 186.184C214.291 158.081 214.291 112.518 186.188 84.4151C158.085 56.3125 112.522 56.3125 84.4194 84.4151C56.3168 112.518 56.3168 158.081 84.4194 186.184C112.522 214.286 158.085 214.286 186.188 186.184Z" fill="#7D7D7D"/>
<path opacity="0.53" d="M184.844 184.846C212.947 156.744 212.947 111.18 184.844 83.0777C156.742 54.9751 111.178 54.9751 83.0757 83.0777C54.9731 111.18 54.9731 156.744 83.0757 184.846C111.178 212.949 156.742 212.949 184.844 184.846Z" fill="#787878"/>
<path opacity="0.55" d="M183.504 183.499C211.607 155.396 211.607 109.833 183.504 81.7305C155.402 53.6279 109.838 53.6279 81.7358 81.7305C53.6332 109.833 53.6332 155.396 81.7358 183.499C109.838 211.602 155.402 211.602 183.504 183.499Z" fill="#737373"/>
<path opacity="0.57" d="M182.164 182.16C210.267 154.057 210.267 108.494 182.164 80.3915C154.062 52.2889 108.498 52.2889 80.3959 80.3915C52.2933 108.494 52.2934 154.057 80.396 182.16C108.499 210.262 154.062 210.263 182.164 182.16Z" fill="#6E6E6E"/>
<path opacity="0.59" d="M180.821 180.822C208.923 152.72 208.923 107.156 180.821 79.0539C152.718 50.9513 107.155 50.9513 79.0523 79.0539C50.9497 107.156 50.9496 152.72 79.0522 180.822C107.155 208.925 152.718 208.925 180.821 180.822Z" fill="#696969"/>
<path opacity="0.61" d="M179.481 179.475C207.583 151.373 207.583 105.81 179.481 77.7069C151.378 49.6043 105.815 49.6043 77.7123 77.7069C49.6097 105.81 49.6098 151.373 77.7124 179.475C105.815 207.578 151.378 207.578 179.481 179.475Z" fill="#646464"/>
<path opacity="0.63" d="M178.137 178.136C206.24 150.034 206.24 104.47 178.137 76.3676C150.035 48.265 104.471 48.265 76.3687 76.3676C48.2661 104.47 48.266 150.034 76.3686 178.136C104.471 206.239 150.035 206.239 178.137 178.136Z" fill="#5F5F5F"/>
<path opacity="0.65" d="M176.793 176.799C204.896 148.696 204.896 103.133 176.793 75.0303C148.691 46.9277 103.127 46.9277 75.0249 75.0303C46.9223 103.133 46.9223 148.696 75.0249 176.799C103.127 204.901 148.691 204.901 176.793 176.799Z" fill="#5A5A5A"/>
<path opacity="0.67" d="M175.454 175.452C203.556 147.349 203.556 101.786 175.454 73.683C147.351 45.5804 101.788 45.5804 73.6851 73.683C45.5825 101.786 45.5824 147.349 73.685 175.452C101.788 203.554 147.351 203.554 175.454 175.452Z" fill="#555555"/>
<path opacity="0.69" d="M174.114 174.113C202.216 146.01 202.216 100.447 174.114 72.3442C146.011 44.2416 100.448 44.2416 72.3453 72.3442C44.2427 100.447 44.2426 146.01 72.3452 174.113C100.448 202.215 146.011 202.215 174.114 174.113Z" fill="#505050"/>
<path opacity="0.71" d="M172.77 172.775C200.873 144.673 200.873 99.1092 172.77 71.0066C144.667 42.904 99.104 42.904 71.0014 71.0066C42.8988 99.1092 42.8988 144.673 71.0014 172.775C99.104 200.878 144.667 200.878 172.77 172.775Z" fill="#4B4B4B"/>
<path opacity="0.73" d="M171.434 171.432C199.537 143.329 199.537 97.7661 171.434 69.6635C143.331 41.5609 97.7682 41.5609 69.6656 69.6635C41.563 97.7661 41.5629 143.33 69.6655 171.432C97.7681 199.535 143.331 199.535 171.434 171.432Z" fill="#464646"/>
<path opacity="0.75" d="M170.09 170.089C198.193 141.986 198.193 96.423 170.09 68.3204C141.988 40.2178 96.4243 40.2177 68.3217 68.3203C40.2191 96.4229 40.2192 141.986 68.3218 170.089C96.4244 198.191 141.988 198.191 170.09 170.089Z" fill="#414141"/>
<path opacity="0.76" d="M168.747 168.751C196.849 140.649 196.849 95.0856 168.747 66.983C140.644 38.8804 95.0806 38.8803 66.978 66.9829C38.8754 95.0855 38.8754 140.649 66.978 168.751C95.0806 196.854 140.644 196.854 168.747 168.751Z" fill="#3C3C3C"/>
<path opacity="0.78" d="M167.407 167.408C195.509 139.306 195.509 93.7423 167.407 65.6397C139.304 37.5371 93.7408 37.5371 65.6382 65.6397C37.5356 93.7423 37.5356 139.306 65.6382 167.408C93.7408 195.511 139.304 195.511 167.407 167.408Z" fill="#373737"/>
<path opacity="0.8" d="M166.063 166.065C194.166 137.963 194.166 92.3995 166.063 64.2969C137.96 36.1943 92.397 36.1943 64.2944 64.2969C36.1918 92.3995 36.1918 137.963 64.2944 166.065C92.397 194.168 137.96 194.168 166.063 166.065Z" fill="#323232"/>
<path opacity="0.82" d="M164.719 164.728C192.822 136.625 192.822 91.062 164.719 62.9594C136.616 34.8568 91.0531 34.8568 62.9506 62.9594C34.848 91.062 34.8481 136.625 62.9507 164.728C91.0533 192.83 136.616 192.83 164.719 164.728Z" fill="#2D2D2D"/>
<path opacity="0.84" d="M163.383 163.385C191.486 135.282 191.486 89.7188 163.383 61.6162C135.281 33.5136 89.7173 33.5136 61.6147 61.6162C33.5121 89.7188 33.5121 135.282 61.6147 163.385C89.7173 191.487 135.281 191.487 163.383 163.385Z" fill="#282828"/>
<path opacity="0.86" d="M162.039 162.042C190.142 133.939 190.142 88.3757 162.039 60.2731C133.937 32.1705 88.3735 32.1705 60.2709 60.2731C32.1683 88.3757 32.1684 133.939 60.271 162.041C88.3736 190.144 133.937 190.144 162.039 162.042Z" fill="#232323"/>
<path opacity="0.88" d="M160.696 160.704C188.798 132.601 188.798 87.0381 160.696 58.9355C132.593 30.8329 87.0299 30.8329 58.9273 58.9355C30.8247 87.0381 30.8246 132.601 58.9272 160.704C87.0298 188.807 132.593 188.807 160.696 160.704Z" fill="#1E1E1E"/>
<path opacity="0.9" d="M159.36 159.361C187.462 131.258 187.462 85.695 159.36 57.5924C131.257 29.4898 85.6938 29.4898 57.5912 57.5924C29.4886 85.695 29.4887 131.258 57.5913 159.361C85.6939 187.463 131.257 187.464 159.36 159.361Z" fill="#191919"/>
<path opacity="0.92" d="M158.016 158.024C186.119 129.921 186.119 84.3577 158.016 56.2551C129.914 28.1525 84.3502 28.1525 56.2476 56.2551C28.145 84.3577 28.1449 129.921 56.2475 158.024C84.3501 186.126 129.914 186.126 158.016 158.024Z" fill="#141414"/>
<path opacity="0.94" d="M156.676 156.677C184.779 128.574 184.779 83.0108 156.676 54.9082C128.574 26.8056 83.0103 26.8056 54.9077 54.9082C26.8051 83.0108 26.8051 128.574 54.9077 156.677C83.0103 184.779 128.574 184.779 156.676 156.677Z" fill="#0F0F0F"/>
<path opacity="0.96" d="M155.336 155.337C183.439 127.235 183.439 81.6714 155.336 53.5688C127.234 25.4662 81.6705 25.4662 53.5679 53.5688C25.4653 81.6714 25.4652 127.235 53.5678 155.337C81.6704 183.44 127.234 183.44 155.336 155.337Z" fill="#0A0A0A"/>
<path opacity="0.98" d="M153.993 154C182.095 125.897 182.095 80.334 153.993 52.2314C125.89 24.1288 80.3268 24.1288 52.2242 52.2314C24.1216 80.334 24.1215 125.897 52.2241 154C80.3267 182.103 125.89 182.102 153.993 154Z" fill="#050505"/>
<path d="M152.653 152.653C180.755 124.55 180.755 78.9868 152.653 50.8842C124.55 22.7816 78.9867 22.7818 50.8842 50.8844C22.7816 78.987 22.7816 124.55 50.8842 152.653C78.9868 180.755 124.55 180.756 152.653 152.653Z" fill="black"/>
</g>
<path d="M101.219 176.338C142.916 176.338 176.719 142.535 176.719 100.838C176.719 59.1404 142.916 25.3379 101.219 25.3379C59.5213 25.3379 25.7188 59.1404 25.7188 100.838C25.7188 142.535 59.5213 176.338 101.219 176.338Z" fill="url(#paint0_linear_2498_3284)"/>
<path d="M101.219 172.338C140.707 172.338 172.719 140.326 172.719 100.838C172.719 61.3496 140.707 29.3379 101.219 29.3379C61.7304 29.3379 29.7188 61.3496 29.7188 100.838C29.7188 140.326 61.7304 172.338 101.219 172.338Z" fill="url(#paint1_linear_2498_3284)"/>
<path d="M175.236 164.338L178.719 178.338L165.719 174.586L175.236 164.338Z" fill="#4D4D4D"/>
<path d="M69.0446 111.338V107.558L75.0366 101.314C75.7646 100.567 76.2873 99.9139 76.6046 99.3539C76.922 98.7939 77.0806 98.2246 77.0806 97.6459C77.0806 96.9366 76.838 96.4046 76.3526 96.0499C75.886 95.6952 75.2046 95.5179 74.3086 95.5179C73.562 95.5179 72.7966 95.6579 72.0126 95.9379C71.2473 96.1992 70.4726 96.6286 69.6886 97.2259L68.0926 93.4739C68.97 92.8019 70.0246 92.2699 71.2566 91.8779C72.4886 91.4859 73.758 91.2899 75.0646 91.2899C77.3606 91.2899 79.106 91.7846 80.3006 92.7739C81.514 93.7632 82.1206 95.1912 82.1206 97.0579C82.1206 98.2526 81.8406 99.4006 81.2806 100.502C80.7393 101.585 79.834 102.742 78.5646 103.974L73.9726 108.454V107.138H82.8486V111.338H69.0446ZM92.3297 111.646C89.903 111.646 88.0364 110.759 86.7297 108.986C85.4417 107.194 84.7977 104.665 84.7977 101.398C84.7977 98.0939 85.4417 95.5832 86.7297 93.8659C88.0364 92.1486 89.903 91.2899 92.3297 91.2899C94.775 91.2899 96.6417 92.1486 97.9297 93.8659C99.2177 95.5832 99.8617 98.0846 99.8617 101.37C99.8617 104.655 99.2084 107.194 97.9017 108.986C96.6137 110.759 94.7564 111.646 92.3297 111.646ZM92.3297 107.53C93.2257 107.53 93.8884 107.045 94.3177 106.074C94.7657 105.103 94.9897 103.545 94.9897 101.398C94.9897 99.2326 94.7657 97.6926 94.3177 96.7779C93.8884 95.8446 93.2257 95.3779 92.3297 95.3779C91.4337 95.3779 90.7617 95.8446 90.3137 96.7779C89.8844 97.6926 89.6697 99.2232 89.6697 101.37C89.6697 103.535 89.8844 105.103 90.3137 106.074C90.7617 107.045 91.4337 107.53 92.3297 107.53ZM102.623 111.338V107.558L108.615 101.314C109.343 100.567 109.865 99.9139 110.183 99.3539C110.5 98.7939 110.659 98.2246 110.659 97.6459C110.659 96.9366 110.416 96.4046 109.931 96.0499C109.464 95.6952 108.783 95.5179 107.887 95.5179C107.14 95.5179 106.375 95.6579 105.591 95.9379C104.825 96.1992 104.051 96.6286 103.267 97.2259L101.671 93.4739C102.548 92.8019 103.603 92.2699 104.835 91.8779C106.067 91.4859 107.336 91.2899 108.643 91.2899C110.939 91.2899 112.684 91.7846 113.879 92.7739C115.092 93.7632 115.699 95.1912 115.699 97.0579C115.699 98.2526 115.419 99.4006 114.859 100.502C114.317 101.585 113.412 102.742 112.143 103.974L107.551 108.454V107.138H116.427V111.338H102.623ZM119.412 111.338V107.558L125.404 101.314C126.132 100.567 126.654 99.9139 126.972 99.3539C127.289 98.7939 127.448 98.2246 127.448 97.6459C127.448 96.9366 127.205 96.4046 126.72 96.0499C126.253 95.6952 125.572 95.5179 124.676 95.5179C123.929 95.5179 123.164 95.6579 122.38 95.9379C121.614 96.1992 120.84 96.6286 120.056 97.2259L118.46 93.4739C119.337 92.8019 120.392 92.2699 121.624 91.8779C122.856 91.4859 124.125 91.2899 125.432 91.2899C127.728 91.2899 129.473 91.7846 130.668 92.7739C131.881 93.7632 132.488 95.1912 132.488 97.0579C132.488 98.2526 132.208 99.4006 131.648 100.502C131.106 101.585 130.201 102.742 128.932 103.974L124.34 108.454V107.138H133.216V111.338H119.412Z" fill="#FA9629"/>
<defs>
<linearGradient id="paint0_linear_2498_3284" x1="46.9833" y1="46.5968" x2="155.516" y2="155.13" gradientUnits="userSpaceOnUse">
<stop stop-color="white"/>
<stop offset="0.37" stop-color="#FBFBFB"/>
<stop offset="0.7" stop-color="#F1F1F1"/>
<stop offset="1" stop-color="#DFDFDF"/>
</linearGradient>
<linearGradient id="paint1_linear_2498_3284" x1="46.5563" y1="51.8653" x2="163.57" y2="156.689" gradientUnits="userSpaceOnUse">
<stop stop-color="#DFDFDF"/>
<stop offset="0.3" stop-color="#F1F1F1"/>
<stop offset="0.63" stop-color="#FBFBFB"/>
<stop offset="1" stop-color="white"/>
</linearGradient>
</defs>
</svg>
