<svg width="249" height="249" viewBox="0 0 249 249" fill="none" xmlns="http://www.w3.org/2000/svg">
<g style="mix-blend-mode:multiply" opacity="0.3">
<path opacity="0.02" d="M175.18 246.744C214.923 246.744 247.141 214.526 247.141 174.782C247.141 135.039 214.923 102.821 175.18 102.821C135.437 102.821 103.219 135.039 103.219 174.782C103.219 214.526 135.437 246.744 175.18 246.744Z" fill="#FAFAFA"/>
<path opacity="0.04" d="M173.836 245.406C213.579 245.406 245.797 213.188 245.797 173.445C245.797 133.702 213.579 101.484 173.836 101.484C134.093 101.484 101.875 133.702 101.875 173.445C101.875 213.188 134.093 245.406 173.836 245.406Z" fill="#F5F5F5"/>
<path opacity="0.06" d="M172.5 244.063C212.243 244.063 244.461 211.845 244.461 172.102C244.461 132.359 212.243 100.141 172.5 100.141C132.757 100.141 100.539 132.359 100.539 172.102C100.539 211.845 132.757 244.063 172.5 244.063Z" fill="#F0F0F0"/>
<path opacity="0.08" d="M171.157 242.726C210.9 242.726 243.118 210.508 243.118 170.765C243.118 131.022 210.9 98.8035 171.157 98.8035C131.413 98.8035 99.1953 131.022 99.1953 170.765C99.1953 210.508 131.413 242.726 171.157 242.726Z" fill="#EBEBEB"/>
<path opacity="0.1" d="M169.817 241.383C209.56 241.383 241.778 209.165 241.778 169.422C241.778 129.679 209.56 97.4604 169.817 97.4604C130.074 97.4604 97.8555 129.679 97.8555 169.422C97.8555 209.165 130.074 241.383 169.817 241.383Z" fill="#E6E6E6"/>
<path opacity="0.12" d="M168.477 240.04C208.22 240.04 240.438 207.821 240.438 168.078C240.438 128.335 208.22 96.1172 168.477 96.1172C128.734 96.1172 96.5156 128.335 96.5156 168.078C96.5156 207.821 128.734 240.04 168.477 240.04Z" fill="#E1E1E1"/>
<path opacity="0.14" d="M167.133 238.702C206.876 238.702 239.094 206.484 239.094 166.741C239.094 126.998 206.876 94.7798 167.133 94.7798C127.39 94.7798 95.1719 126.998 95.1719 166.741C95.1719 206.484 127.39 238.702 167.133 238.702Z" fill="#DCDCDC"/>
<path opacity="0.16" d="M165.797 237.359C205.54 237.359 237.758 205.141 237.758 165.398C237.758 125.655 205.54 93.4365 165.797 93.4365C126.054 93.4365 93.8359 125.655 93.8359 165.398C93.8359 205.141 126.054 237.359 165.797 237.359Z" fill="#D7D7D7"/>
<path opacity="0.18" d="M164.449 236.016C204.193 236.016 236.411 203.798 236.411 164.055C236.411 124.312 204.193 92.0935 164.449 92.0935C124.706 92.0935 92.4883 124.312 92.4883 164.055C92.4883 203.798 124.706 236.016 164.449 236.016Z" fill="#D2D2D2"/>
<path opacity="0.2" d="M163.106 234.679C202.849 234.679 235.067 202.46 235.067 162.717C235.067 122.974 202.849 90.7561 163.106 90.7561C123.363 90.7561 91.1445 122.974 91.1445 162.717C91.1445 202.46 123.363 234.679 163.106 234.679Z" fill="#CDCDCD"/>
<path opacity="0.22" d="M161.77 233.336C201.513 233.336 233.731 201.117 233.731 161.374C233.731 121.631 201.513 89.4131 161.77 89.4131C122.027 89.4131 89.8086 121.631 89.8086 161.374C89.8086 201.117 122.027 233.336 161.77 233.336Z" fill="#C8C8C8"/>
<path opacity="0.24" d="M160.426 231.992C200.169 231.992 232.387 199.774 232.387 160.031C232.387 120.288 200.169 88.0698 160.426 88.0698C120.683 88.0698 88.4648 120.288 88.4648 160.031C88.4648 199.774 120.683 231.992 160.426 231.992Z" fill="#C3C3C3"/>
<path opacity="0.25" d="M159.086 230.655C198.829 230.655 231.047 198.437 231.047 158.694C231.047 118.951 198.829 86.7324 159.086 86.7324C119.343 86.7324 87.125 118.951 87.125 158.694C87.125 198.437 119.343 230.655 159.086 230.655Z" fill="#BEBEBE"/>
<path opacity="0.27" d="M157.746 229.312C197.489 229.312 229.708 197.094 229.708 157.351C229.708 117.608 197.489 85.3894 157.746 85.3894C118.003 85.3894 85.7852 117.608 85.7852 157.351C85.7852 197.094 118.003 229.312 157.746 229.312Z" fill="#B9B9B9"/>
<path opacity="0.29" d="M156.407 227.969C196.15 227.969 228.368 195.75 228.368 156.007C228.368 116.264 196.15 84.0461 156.407 84.0461C116.663 84.0461 84.4453 116.264 84.4453 156.007C84.4453 195.75 116.663 227.969 156.407 227.969Z" fill="#B4B4B4"/>
<path opacity="0.31" d="M155.063 226.631C194.806 226.631 227.024 194.413 227.024 154.67C227.024 114.927 194.806 82.7087 155.063 82.7087C115.32 82.7087 83.1016 114.927 83.1016 154.67C83.1016 194.413 115.32 226.631 155.063 226.631Z" fill="#AFAFAF"/>
<path opacity="0.33" d="M153.727 225.288C193.47 225.288 225.688 193.07 225.688 153.327C225.688 113.584 193.47 81.3657 153.727 81.3657C113.984 81.3657 81.7656 113.584 81.7656 153.327C81.7656 193.07 113.984 225.288 153.727 225.288Z" fill="#AAAAAA"/>
<path opacity="0.35" d="M152.379 223.945C192.122 223.945 224.34 191.727 224.34 151.984C224.34 112.241 192.122 80.0225 152.379 80.0225C112.636 80.0225 80.418 112.241 80.418 151.984C80.418 191.727 112.636 223.945 152.379 223.945Z" fill="#A5A5A5"/>
<path opacity="0.37" d="M151.035 222.607C190.778 222.607 222.997 190.389 222.997 150.646C222.997 110.903 190.778 78.6851 151.035 78.6851C111.292 78.6851 79.0742 110.903 79.0742 150.646C79.0742 190.389 111.292 222.607 151.035 222.607Z" fill="#A0A0A0"/>
<path opacity="0.39" d="M149.699 221.264C189.443 221.264 221.661 189.046 221.661 149.303C221.661 109.56 189.443 77.342 149.699 77.342C109.956 77.342 77.7383 109.56 77.7383 149.303C77.7383 189.046 109.956 221.264 149.699 221.264Z" fill="#9B9B9B"/>
<path opacity="0.41" d="M148.36 219.921C188.103 219.921 220.321 187.703 220.321 147.96C220.321 108.217 188.103 75.999 148.36 75.999C108.617 75.999 76.3984 108.217 76.3984 147.96C76.3984 187.703 108.617 219.921 148.36 219.921Z" fill="#969696"/>
<path opacity="0.43" d="M147.016 218.584C186.759 218.584 218.977 186.366 218.977 146.623C218.977 106.88 186.759 74.6614 147.016 74.6614C107.273 74.6614 75.0547 106.88 75.0547 146.623C75.0547 186.366 107.273 218.584 147.016 218.584Z" fill="#919191"/>
<path opacity="0.45" d="M145.68 217.241C185.423 217.241 217.641 185.023 217.641 145.28C217.641 105.537 185.423 73.3184 145.68 73.3184C105.937 73.3184 73.7188 105.537 73.7188 145.28C73.7188 185.023 105.937 217.241 145.68 217.241Z" fill="#8C8C8C"/>
<path opacity="0.47" d="M144.336 215.903C184.079 215.903 216.297 183.685 216.297 143.942C216.297 104.199 184.079 71.981 144.336 71.981C104.593 71.981 72.375 104.199 72.375 143.942C72.375 183.685 104.593 215.903 144.336 215.903Z" fill="#878787"/>
<path opacity="0.49" d="M143 214.56C182.743 214.56 214.962 182.342 214.962 142.599C214.962 102.856 182.743 70.6377 143 70.6377C103.257 70.6377 71.0391 102.856 71.0391 142.599C71.0391 182.342 103.257 214.56 143 214.56Z" fill="#828282"/>
<path opacity="0.51" d="M192.543 192.143C220.646 164.04 220.646 118.477 192.543 90.3741C164.441 62.2715 118.877 62.2715 90.7749 90.3741C62.6723 118.477 62.6723 164.04 90.7749 192.143C118.877 220.245 164.441 220.245 192.543 192.143Z" fill="#7D7D7D"/>
<path opacity="0.53" d="M191.2 190.799C219.302 162.697 219.302 117.133 191.2 89.0308C163.097 60.9282 117.534 60.9282 89.4311 89.0308C61.3285 117.133 61.3285 162.697 89.4311 190.799C117.534 218.902 163.097 218.902 191.2 190.799Z" fill="#787878"/>
<path opacity="0.55" d="M189.86 189.458C217.962 161.355 217.962 115.792 189.86 87.6895C161.757 59.5869 116.194 59.5869 88.0913 87.6895C59.9887 115.792 59.9887 161.355 88.0913 189.458C116.194 217.561 161.757 217.561 189.86 189.458Z" fill="#737373"/>
<path opacity="0.57" d="M188.52 188.119C216.623 160.016 216.623 114.453 188.52 86.3504C160.417 58.2478 114.854 58.2478 86.7514 86.3504C58.6488 114.453 58.6488 160.016 86.7514 188.119C114.854 216.221 160.417 216.221 188.52 188.119Z" fill="#6E6E6E"/>
<path opacity="0.59" d="M187.176 186.776C215.279 158.673 215.279 113.11 187.176 85.0071C159.074 56.9045 113.51 56.9045 85.4077 85.0071C57.3051 113.11 57.3051 158.673 85.4077 186.776C113.51 214.878 159.074 214.878 187.176 186.776Z" fill="#696969"/>
<path opacity="0.61" d="M185.836 185.435C213.939 157.332 213.939 111.769 185.836 83.666C157.734 55.5634 112.17 55.5634 84.0678 83.666C55.9652 111.769 55.9652 157.332 84.0678 185.435C112.17 213.537 157.734 213.537 185.836 185.435Z" fill="#646464"/>
<path opacity="0.63" d="M184.493 184.095C212.595 155.993 212.595 110.429 184.493 82.3267C156.39 54.2241 110.827 54.2241 82.7241 82.3267C54.6215 110.429 54.6215 155.993 82.7241 184.095C110.827 212.198 156.39 212.198 184.493 184.095Z" fill="#5F5F5F"/>
<path opacity="0.65" d="M183.149 182.752C211.251 154.649 211.251 109.086 183.149 80.9834C155.046 52.8808 109.483 52.8808 81.3803 80.9834C53.2777 109.086 53.2777 154.649 81.3803 182.752C109.483 210.855 155.046 210.855 183.149 182.752Z" fill="#5A5A5A"/>
<path opacity="0.67" d="M181.809 181.41C209.912 153.308 209.912 107.745 181.809 79.6419C153.707 51.5393 108.143 51.5393 80.0407 79.6419C51.9381 107.745 51.9379 153.308 80.0405 181.411C108.143 209.513 153.707 209.513 181.809 181.41Z" fill="#555555"/>
<path opacity="0.69" d="M180.469 180.071C208.572 151.969 208.572 106.405 180.469 78.3028C152.367 50.2002 106.803 50.2002 78.7007 78.3028C50.5981 106.405 50.5981 151.969 78.7007 180.071C106.803 208.174 152.367 208.174 180.469 180.071Z" fill="#505050"/>
<path opacity="0.71" d="M179.125 178.728C207.228 150.626 207.228 105.063 179.125 76.96C151.023 48.8574 105.46 48.8574 77.3569 76.96C49.2543 105.063 49.2543 150.626 77.3569 178.728C105.46 206.831 151.023 206.831 179.125 178.728Z" fill="#4B4B4B"/>
<path opacity="0.73" d="M177.789 177.391C205.892 149.288 205.892 103.725 177.789 75.6223C149.687 47.5197 104.124 47.5197 76.021 75.6223C47.9184 103.725 47.9184 149.288 76.021 177.391C104.124 205.493 149.687 205.493 177.789 177.391Z" fill="#464646"/>
<path opacity="0.75" d="M176.446 176.048C204.548 147.945 204.548 102.382 176.446 74.2794C148.343 46.1768 102.78 46.1767 74.6772 74.2793C46.5746 102.382 46.5747 147.945 74.6773 176.048C102.78 204.15 148.343 204.15 176.446 176.048Z" fill="#414141"/>
<path opacity="0.76" d="M175.102 174.705C203.205 146.602 203.205 101.039 175.102 72.9364C146.999 44.8338 101.436 44.8337 73.3335 72.9363C45.2309 101.039 45.2309 146.602 73.3335 174.705C101.436 202.807 146.999 202.807 175.102 174.705Z" fill="#3C3C3C"/>
<path opacity="0.78" d="M173.762 173.367C201.865 145.265 201.865 99.7013 173.762 71.5987C145.66 43.4961 100.096 43.4961 71.9936 71.5987C43.891 99.7013 43.891 145.265 71.9936 173.367C100.096 201.47 145.66 201.47 173.762 173.367Z" fill="#373737"/>
<path opacity="0.8" d="M172.418 172.024C200.521 143.922 200.521 98.3585 172.418 70.2559C144.316 42.1533 98.7525 42.1533 70.6499 70.2559C42.5473 98.3585 42.5473 143.922 70.6499 172.024C98.7525 200.127 144.316 200.127 172.418 172.024Z" fill="#323232"/>
<path opacity="0.82" d="M171.075 170.687C199.177 142.584 199.177 97.0208 171.075 68.9182C142.972 40.8156 97.4087 40.8156 69.3061 68.9182C41.2035 97.0208 41.2035 142.584 69.3061 170.687C97.4087 198.789 142.972 198.789 171.075 170.687Z" fill="#2D2D2D"/>
<path opacity="0.84" d="M169.739 169.344C197.841 141.241 197.841 95.6778 169.739 67.5752C141.636 39.4726 96.0728 39.4726 67.9702 67.5752C39.8676 95.6778 39.8676 141.241 67.9702 169.344C96.0728 197.446 141.636 197.446 169.739 169.344Z" fill="#282828"/>
<path opacity="0.86" d="M168.395 168C196.498 139.898 196.498 94.3346 168.395 66.232C140.292 38.1294 94.729 38.1294 66.6264 66.232C38.5238 94.3346 38.5238 139.898 66.6264 168C94.729 196.103 140.292 196.103 168.395 168Z" fill="#232323"/>
<path opacity="0.88" d="M167.051 166.663C195.154 138.56 195.154 92.9972 167.051 64.8946C138.949 36.792 93.3853 36.792 65.2827 64.8946C37.1801 92.9972 37.1801 138.56 65.2827 166.663C93.3853 194.766 138.949 194.766 167.051 166.663Z" fill="#1E1E1E"/>
<path opacity="0.9" d="M165.715 165.32C193.818 137.217 193.818 91.6541 165.715 63.5515C137.613 35.4489 92.0493 35.4489 63.9467 63.5515C35.8441 91.6541 35.8441 137.217 63.9467 165.32C92.0493 193.423 137.613 193.423 165.715 165.32Z" fill="#191919"/>
<path opacity="0.92" d="M164.371 163.977C192.474 135.874 192.474 90.3109 164.371 62.2083C136.269 34.1057 90.7056 34.1057 62.603 62.2083C34.5004 90.3109 34.5004 135.874 62.603 163.977C90.7056 192.079 136.269 192.079 164.371 163.977Z" fill="#141414"/>
<path opacity="0.94" d="M163.032 162.635C191.134 134.533 191.134 88.9696 163.032 60.867C134.929 32.7644 89.3658 32.7644 61.2632 60.867C33.1606 88.9696 33.1606 134.533 61.2632 162.635C89.3658 190.738 134.929 190.738 163.032 162.635Z" fill="#0F0F0F"/>
<path opacity="0.96" d="M161.692 161.296C189.795 133.194 189.795 87.6303 161.692 59.5277C133.589 31.4251 88.0261 31.4251 59.9235 59.5277C31.8209 87.6303 31.8207 133.194 59.9233 161.296C88.0259 189.399 133.589 189.399 161.692 161.296Z" fill="#0A0A0A"/>
<path opacity="0.98" d="M160.348 159.953C188.451 131.851 188.451 86.2872 160.348 58.1846C132.245 30.082 86.6822 30.082 58.5796 58.1846C30.477 86.2872 30.477 131.85 58.5796 159.953C86.6822 188.056 132.245 188.056 160.348 159.953Z" fill="#050505"/>
<path d="M159.008 158.612C187.111 130.509 187.111 84.9459 159.008 56.8433C130.906 28.7407 85.3423 28.7409 57.2397 56.8435C29.1371 84.9461 29.1371 130.509 57.2397 158.612C85.3423 186.715 130.906 186.715 159.008 158.612Z" fill="black"/>
</g>
<path d="M161.497 160.809C191.058 131.248 191.058 83.3198 161.497 53.7588C131.936 24.1977 84.0079 24.1977 54.4469 53.7587C24.8858 83.3198 24.8858 131.248 54.4469 160.809C84.008 190.37 131.936 190.37 161.497 160.809Z" fill="url(#paint0_linear_2498_3285)"/>
<path d="M124.393 177.063C162.863 167.983 186.688 129.436 177.609 90.966C168.529 52.4959 129.982 28.6703 91.5118 37.75C53.0417 46.8298 29.2161 85.3767 38.2959 123.847C47.3756 162.317 85.9225 186.143 124.393 177.063Z" fill="url(#paint1_linear_2498_3285)"/>
<path d="M76.3259 117.784V114.004L82.3179 107.76C83.0459 107.013 83.5685 106.36 83.8859 105.8C84.2032 105.24 84.3619 104.67 84.3619 104.092C84.3619 103.382 84.1192 102.85 83.6339 102.496C83.1672 102.141 82.4859 101.964 81.5899 101.964C80.8432 101.964 80.0779 102.104 79.2939 102.384C78.5285 102.645 77.7539 103.074 76.9699 103.672L75.3739 99.9197C76.2512 99.2477 77.3059 98.7157 78.5379 98.3237C79.7699 97.9317 81.0392 97.7357 82.3459 97.7357C84.6419 97.7357 86.3872 98.2304 87.5819 99.2197C88.7952 100.209 89.4019 101.637 89.4019 103.504C89.4019 104.698 89.1219 105.846 88.5619 106.948C88.0205 108.03 87.1152 109.188 85.8459 110.42L81.2539 114.9V113.584H90.1299V117.784H76.3259ZM99.6109 118.092C97.1843 118.092 95.3176 117.205 94.0109 115.432C92.7229 113.64 92.0789 111.11 92.0789 107.844C92.0789 104.54 92.7229 102.029 94.0109 100.312C95.3176 98.5944 97.1843 97.7357 99.6109 97.7357C102.056 97.7357 103.923 98.5944 105.211 100.312C106.499 102.029 107.143 104.53 107.143 107.816C107.143 111.101 106.49 113.64 105.183 115.432C103.895 117.205 102.038 118.092 99.6109 118.092ZM99.6109 113.976C100.507 113.976 101.17 113.49 101.599 112.52C102.047 111.549 102.271 109.99 102.271 107.844C102.271 105.678 102.047 104.138 101.599 103.224C101.17 102.29 100.507 101.824 99.6109 101.824C98.7149 101.824 98.0429 102.29 97.5949 103.224C97.1656 104.138 96.9509 105.669 96.9509 107.816C96.9509 109.981 97.1656 111.549 97.5949 112.52C98.0429 113.49 98.7149 113.976 99.6109 113.976ZM109.904 117.784V114.004L115.896 107.76C116.624 107.013 117.147 106.36 117.464 105.8C117.781 105.24 117.94 104.67 117.94 104.092C117.94 103.382 117.697 102.85 117.212 102.496C116.745 102.141 116.064 101.964 115.168 101.964C114.421 101.964 113.656 102.104 112.872 102.384C112.107 102.645 111.332 103.074 110.548 103.672L108.952 99.9197C109.829 99.2477 110.884 98.7157 112.116 98.3237C113.348 97.9317 114.617 97.7357 115.924 97.7357C118.22 97.7357 119.965 98.2304 121.16 99.2197C122.373 100.209 122.98 101.637 122.98 103.504C122.98 104.698 122.7 105.846 122.14 106.948C121.599 108.03 120.693 109.188 119.424 110.42L114.832 114.9V113.584H123.708V117.784H109.904ZM132.629 118.092C131.229 118.092 129.876 117.905 128.569 117.532C127.281 117.14 126.245 116.617 125.461 115.964L127.029 112.156C127.85 112.734 128.718 113.164 129.633 113.444C130.548 113.724 131.49 113.864 132.461 113.864C133.469 113.864 134.225 113.696 134.729 113.36C135.233 113.005 135.485 112.482 135.485 111.792C135.485 111.138 135.252 110.653 134.785 110.336C134.337 110.018 133.665 109.86 132.769 109.86H129.297V105.828H132.265C133.068 105.828 133.702 105.66 134.169 105.324C134.636 104.969 134.869 104.474 134.869 103.84C134.869 103.224 134.645 102.757 134.197 102.44C133.749 102.122 133.096 101.964 132.237 101.964C130.445 101.964 128.821 102.533 127.365 103.672L125.797 99.9197C126.637 99.229 127.673 98.697 128.905 98.3237C130.137 97.9317 131.416 97.7357 132.741 97.7357C134.944 97.7357 136.67 98.221 137.921 99.1917C139.172 100.144 139.797 101.469 139.797 103.168C139.797 104.306 139.47 105.286 138.817 106.108C138.182 106.929 137.305 107.47 136.185 107.732V107.34C137.492 107.545 138.518 108.096 139.265 108.992C140.012 109.869 140.385 110.97 140.385 112.296C140.385 114.088 139.694 115.506 138.313 116.552C136.932 117.578 135.037 118.092 132.629 118.092Z" fill="#7070BA"/>
<defs>
<linearGradient id="paint0_linear_2498_3285" x1="53.3942" y1="52.7089" x2="163.359" y2="162.674" gradientUnits="userSpaceOnUse">
<stop stop-color="white"/>
<stop offset="0.37" stop-color="#FBFBFB"/>
<stop offset="0.7" stop-color="#F1F1F1"/>
<stop offset="1" stop-color="#DFDFDF"/>
</linearGradient>
<linearGradient id="paint1_linear_2498_3285" x1="56.5497" y1="55.2833" x2="160.825" y2="160.692" gradientUnits="userSpaceOnUse">
<stop stop-color="#DFDFDF"/>
<stop offset="0.3" stop-color="#F1F1F1"/>
<stop offset="0.63" stop-color="#FBFBFB"/>
<stop offset="1" stop-color="white"/>
</linearGradient>
</defs>
</svg>
