<svg width="243" height="243" viewBox="0 0 243 243" fill="none" xmlns="http://www.w3.org/2000/svg">
<g style="mix-blend-mode:multiply" opacity="0.3">
<path opacity="0.02" d="M168.824 240.789C208.568 240.789 240.786 208.571 240.786 168.828C240.786 129.085 208.568 96.8667 168.824 96.8667C129.081 96.8667 96.8633 129.085 96.8633 168.828C96.8633 208.571 129.081 240.789 168.824 240.789Z" fill="#FAFAFA"/>
<path opacity="0.04" d="M167.481 239.452C207.224 239.452 239.442 207.234 239.442 167.49C239.442 127.747 207.224 95.5293 167.481 95.5293C127.738 95.5293 95.5195 127.747 95.5195 167.49C95.5195 207.234 127.738 239.452 167.481 239.452Z" fill="#F5F5F5"/>
<path opacity="0.06" d="M166.145 238.108C205.888 238.108 238.106 205.89 238.106 166.147C238.106 126.404 205.888 94.186 166.145 94.186C126.402 94.186 94.1836 126.404 94.1836 166.147C94.1836 205.89 126.402 238.108 166.145 238.108Z" fill="#F0F0F0"/>
<path opacity="0.08" d="M164.801 236.771C204.544 236.771 236.762 204.553 236.762 164.81C236.762 125.067 204.544 92.8486 164.801 92.8486C125.058 92.8486 92.8398 125.067 92.8398 164.81C92.8398 204.553 125.058 236.771 164.801 236.771Z" fill="#EBEBEB"/>
<path opacity="0.1" d="M163.461 235.428C203.204 235.428 235.422 203.21 235.422 163.467C235.422 123.723 203.204 91.5054 163.461 91.5054C123.718 91.5054 91.5 123.723 91.5 163.467C91.5 203.21 123.718 235.428 163.461 235.428Z" fill="#E6E6E6"/>
<path opacity="0.12" d="M162.117 234.085C201.861 234.085 234.079 201.867 234.079 162.124C234.079 122.381 201.861 90.1626 162.117 90.1626C122.374 90.1626 90.1562 122.381 90.1562 162.124C90.1562 201.867 122.374 234.085 162.117 234.085Z" fill="#E1E1E1"/>
<path opacity="0.14" d="M160.774 232.747C200.517 232.747 232.735 200.529 232.735 160.786C232.735 121.043 200.517 88.825 160.774 88.825C121.031 88.825 88.8125 121.043 88.8125 160.786C88.8125 200.529 121.031 232.747 160.774 232.747Z" fill="#DCDCDC"/>
<path opacity="0.16" d="M159.438 231.404C199.181 231.404 231.399 199.186 231.399 159.443C231.399 119.7 199.181 87.4819 159.438 87.4819C119.695 87.4819 87.4766 119.7 87.4766 159.443C87.4766 199.186 119.695 231.404 159.438 231.404Z" fill="#D7D7D7"/>
<path opacity="0.18" d="M158.094 230.061C197.837 230.061 230.055 197.843 230.055 158.1C230.055 118.357 197.837 86.1387 158.094 86.1387C118.351 86.1387 86.1328 118.357 86.1328 158.1C86.1328 197.843 118.351 230.061 158.094 230.061Z" fill="#D2D2D2"/>
<path opacity="0.2" d="M156.75 228.724C196.493 228.724 228.712 196.506 228.712 156.762C228.712 117.019 196.493 84.8013 156.75 84.8013C117.007 84.8013 84.7891 117.019 84.7891 156.762C84.7891 196.506 117.007 228.724 156.75 228.724Z" fill="#CDCDCD"/>
<path opacity="0.22" d="M155.414 227.381C195.157 227.381 227.376 195.163 227.376 155.419C227.376 115.676 195.157 83.4583 155.414 83.4583C115.671 83.4583 83.4531 115.676 83.4531 155.419C83.4531 195.163 115.671 227.381 155.414 227.381Z" fill="#C8C8C8"/>
<path opacity="0.24" d="M154.071 226.038C193.814 226.038 226.032 193.82 226.032 154.076C226.032 114.333 193.814 82.1152 154.071 82.1152C114.327 82.1152 82.1094 114.333 82.1094 154.076C82.1094 193.82 114.327 226.038 154.071 226.038Z" fill="#C3C3C3"/>
<path opacity="0.25" d="M152.727 224.7C192.47 224.7 224.688 192.482 224.688 152.739C224.688 112.996 192.47 80.7778 152.727 80.7778C112.984 80.7778 80.7656 112.996 80.7656 152.739C80.7656 192.482 112.984 224.7 152.727 224.7Z" fill="#BEBEBE"/>
<path opacity="0.27" d="M151.391 223.357C191.134 223.357 223.352 191.139 223.352 151.396C223.352 111.653 191.134 79.4346 151.391 79.4346C111.648 79.4346 79.4297 111.653 79.4297 151.396C79.4297 191.139 111.648 223.357 151.391 223.357Z" fill="#B9B9B9"/>
<path opacity="0.29" d="M150.047 222.014C189.79 222.014 222.008 189.796 222.008 150.053C222.008 110.309 189.79 78.0913 150.047 78.0913C110.304 78.0913 78.0859 110.309 78.0859 150.053C78.0859 189.796 110.304 222.014 150.047 222.014Z" fill="#B4B4B4"/>
<path opacity="0.31" d="M148.703 220.676C188.446 220.676 220.665 188.458 220.665 148.715C220.665 108.972 188.446 76.7539 148.703 76.7539C108.96 76.7539 76.7422 108.972 76.7422 148.715C76.7422 188.458 108.96 220.676 148.703 220.676Z" fill="#AFAFAF"/>
<path opacity="0.33" d="M147.367 219.333C187.111 219.333 219.329 187.115 219.329 147.372C219.329 107.629 187.111 75.4109 147.367 75.4109C107.624 75.4109 75.4062 107.629 75.4062 147.372C75.4062 187.115 107.624 219.333 147.367 219.333Z" fill="#AAAAAA"/>
<path opacity="0.35" d="M146.024 217.99C185.767 217.99 217.985 185.772 217.985 146.029C217.985 106.286 185.767 74.0679 146.024 74.0679C106.281 74.0679 74.0625 106.286 74.0625 146.029C74.0625 185.772 106.281 217.99 146.024 217.99Z" fill="#A5A5A5"/>
<path opacity="0.37" d="M144.68 216.653C184.423 216.653 216.641 184.435 216.641 144.692C216.641 104.949 184.423 72.7305 144.68 72.7305C104.937 72.7305 72.7188 104.949 72.7188 144.692C72.7188 184.435 104.937 216.653 144.68 216.653Z" fill="#A0A0A0"/>
<path opacity="0.39" d="M143.344 215.31C183.087 215.31 215.305 183.091 215.305 143.348C215.305 103.605 183.087 71.3872 143.344 71.3872C103.601 71.3872 71.3828 103.605 71.3828 143.348C71.3828 183.091 103.601 215.31 143.344 215.31Z" fill="#9B9B9B"/>
<path opacity="0.41" d="M142 213.967C181.743 213.967 213.961 181.748 213.961 142.005C213.961 102.262 181.743 70.0442 142 70.0442C102.257 70.0442 70.0391 102.262 70.0391 142.005C70.0391 181.748 102.257 213.967 142 213.967Z" fill="#969696"/>
<path opacity="0.43" d="M140.657 212.629C180.4 212.629 212.618 180.411 212.618 140.668C212.618 100.925 180.4 68.7065 140.657 68.7065C100.913 68.7065 68.6953 100.925 68.6953 140.668C68.6953 180.411 100.913 212.629 140.657 212.629Z" fill="#919191"/>
<path opacity="0.45" d="M139.321 211.286C179.064 211.286 211.282 179.068 211.282 139.325C211.282 99.5817 179.064 67.3635 139.321 67.3635C99.5775 67.3635 67.3594 99.5817 67.3594 139.325C67.3594 179.068 99.5775 211.286 139.321 211.286Z" fill="#8C8C8C"/>
<path opacity="0.47" d="M137.977 209.949C177.72 209.949 209.938 177.73 209.938 137.987C209.938 98.2442 177.72 66.0261 137.977 66.0261C98.2337 66.0261 66.0156 98.2442 66.0156 137.987C66.0156 177.73 98.2337 209.949 137.977 209.949Z" fill="#878787"/>
<path opacity="0.49" d="M136.641 208.606C176.384 208.606 208.602 176.387 208.602 136.644C208.602 96.9012 176.384 64.6831 136.641 64.6831C96.8979 64.6831 64.6797 96.9012 64.6797 136.644C64.6797 176.387 96.8979 208.606 136.641 208.606Z" fill="#828282"/>
<path opacity="0.51" d="M186.18 186.189C214.283 158.087 214.283 112.523 186.18 84.4207C158.077 56.3181 112.514 56.3181 84.4116 84.4207C56.309 112.523 56.309 158.087 84.4116 186.189C112.514 214.292 158.078 214.292 186.18 186.189Z" fill="#7D7D7D"/>
<path opacity="0.53" d="M184.836 184.846C212.939 156.744 212.939 111.18 184.836 83.0777C156.734 54.9751 111.17 54.9751 83.0678 83.0777C54.9652 111.18 54.9652 156.744 83.0678 184.846C111.17 212.949 156.734 212.949 184.836 184.846Z" fill="#787878"/>
<path opacity="0.55" d="M183.497 183.499C211.599 155.396 211.599 109.833 183.496 81.7305C155.394 53.6279 109.831 53.6279 81.728 81.7305C53.6254 109.833 53.6254 155.396 81.728 183.499C109.831 211.602 155.394 211.602 183.497 183.499Z" fill="#737373"/>
<path opacity="0.57" d="M182.157 182.165C210.259 154.063 210.259 108.5 182.157 80.397C154.054 52.2944 108.491 52.2944 80.3882 80.397C52.2856 108.5 52.2856 154.063 80.3882 182.165C108.491 210.268 154.054 210.268 182.157 182.165Z" fill="#6E6E6E"/>
<path opacity="0.59" d="M180.813 180.822C208.916 152.72 208.916 107.156 180.813 79.0537C152.71 50.9511 107.147 50.9511 79.0444 79.0537C50.9418 107.156 50.9418 152.72 79.0444 180.822C107.147 208.925 152.71 208.925 180.813 180.822Z" fill="#696969"/>
<path opacity="0.61" d="M179.473 179.476C207.576 151.373 207.576 105.81 179.473 77.7071C151.37 49.6045 105.807 49.6045 77.7046 77.7071C49.602 105.81 49.602 151.373 77.7046 179.476C105.807 207.578 151.37 207.578 179.473 179.476Z" fill="#646464"/>
<path opacity="0.63" d="M178.133 178.142C206.236 150.039 206.236 104.476 178.133 76.3733C150.031 48.2707 104.467 48.2707 76.3647 76.3733C48.2621 104.476 48.2621 150.039 76.3647 178.142C104.467 206.244 150.031 206.244 178.133 178.142Z" fill="#5F5F5F"/>
<path opacity="0.65" d="M176.789 176.799C204.892 148.696 204.892 103.133 176.789 75.0303C148.687 46.9277 103.124 46.9277 75.021 75.0303C46.9184 103.133 46.9184 148.696 75.021 176.799C103.124 204.901 148.687 204.901 176.789 176.799Z" fill="#5A5A5A"/>
<path opacity="0.67" d="M175.45 175.451C203.552 147.349 203.552 101.786 175.45 73.6829C147.347 45.5803 101.784 45.5803 73.6813 73.6829C45.5787 101.786 45.5785 147.349 73.6811 175.452C101.784 203.554 147.347 203.554 175.45 175.451Z" fill="#555555"/>
<path opacity="0.69" d="M174.11 174.118C202.212 146.016 202.212 100.452 174.11 72.3496C146.007 44.247 100.444 44.247 72.3413 72.3496C44.2387 100.452 44.2387 146.016 72.3413 174.118C100.444 202.221 146.007 202.221 174.11 174.118Z" fill="#505050"/>
<path opacity="0.71" d="M172.77 172.775C200.873 144.673 200.873 99.1095 172.77 71.0069C144.667 42.9043 99.104 42.9043 71.0014 71.0069C42.8988 99.1095 42.8988 144.673 71.0014 172.775C99.104 200.878 144.667 200.878 172.77 172.775Z" fill="#4B4B4B"/>
<path opacity="0.73" d="M171.434 171.432C199.537 143.33 199.537 97.7662 171.434 69.6636C143.331 41.561 97.7681 41.561 69.6655 69.6636C41.5629 97.7662 41.5629 143.33 69.6655 171.432C97.7681 199.535 143.331 199.535 171.434 171.432Z" fill="#464646"/>
<path opacity="0.75" d="M170.09 170.094C198.193 141.992 198.193 96.4286 170.09 68.326C141.988 40.2234 96.4243 40.2234 68.3217 68.326C40.2191 96.4286 40.2192 141.992 68.3218 170.095C96.4244 198.197 141.988 198.197 170.09 170.094Z" fill="#414141"/>
<path opacity="0.76" d="M168.747 168.751C196.849 140.649 196.849 95.0856 168.747 66.983C140.644 38.8804 95.0806 38.8803 66.978 66.9829C38.8754 95.0855 38.8754 140.649 66.978 168.751C95.0806 196.854 140.644 196.854 168.747 168.751Z" fill="#3C3C3C"/>
<path opacity="0.78" d="M167.407 167.414C195.509 139.311 195.509 93.7481 167.407 65.6455C139.304 37.5429 93.7408 37.5429 65.6382 65.6455C37.5356 93.7481 37.5356 139.311 65.6382 167.414C93.7408 195.517 139.304 195.517 167.407 167.414Z" fill="#373737"/>
<path opacity="0.8" d="M166.063 166.071C194.166 137.968 194.166 92.4049 166.063 64.3023C137.96 36.1997 92.397 36.1997 64.2944 64.3023C36.1918 92.4049 36.1918 137.968 64.2944 166.071C92.397 194.173 137.96 194.173 166.063 166.071Z" fill="#323232"/>
<path opacity="0.82" d="M164.719 164.728C192.822 136.625 192.822 91.0621 164.719 62.9595C136.617 34.8569 91.0533 34.8569 62.9507 62.9595C34.8481 91.0621 34.8481 136.625 62.9507 164.728C91.0533 192.831 136.617 192.831 164.719 164.728Z" fill="#2D2D2D"/>
<path opacity="0.84" d="M163.383 163.39C191.486 135.288 191.486 89.7244 163.383 61.6219C135.281 33.5193 89.7173 33.5193 61.6147 61.6219C33.5121 89.7245 33.5121 135.288 61.6147 163.39C89.7173 191.493 135.281 191.493 163.383 163.39Z" fill="#282828"/>
<path opacity="0.86" d="M162.039 162.047C190.142 133.945 190.142 88.3814 162.039 60.2788C133.937 32.1762 88.3736 32.1762 60.271 60.2788C32.1684 88.3814 32.1684 133.945 60.271 162.047C88.3736 190.15 133.937 190.15 162.039 162.047Z" fill="#232323"/>
<path opacity="0.88" d="M160.696 160.704C188.798 132.601 188.798 87.0382 160.696 58.9356C132.593 30.833 87.0298 30.833 58.9272 58.9356C30.8246 87.0382 30.8246 132.601 58.9272 160.704C87.0298 188.807 132.593 188.807 160.696 160.704Z" fill="#1E1E1E"/>
<path opacity="0.9" d="M159.36 159.367C187.462 131.264 187.462 85.7008 159.36 57.5982C131.257 29.4956 85.6939 29.4956 57.5913 57.5982C29.4887 85.7008 29.4887 131.264 57.5913 159.367C85.6939 187.469 131.257 187.469 159.36 159.367Z" fill="#191919"/>
<path opacity="0.92" d="M158.016 158.023C186.119 129.921 186.119 84.3575 158.016 56.2549C129.913 28.1523 84.3501 28.1523 56.2475 56.2549C28.1449 84.3575 28.1449 129.921 56.2475 158.023C84.3501 186.126 129.913 186.126 158.016 158.023Z" fill="#141414"/>
<path opacity="0.94" d="M156.676 156.676C184.779 128.574 184.779 83.0106 156.676 54.908C128.574 26.8054 83.0103 26.8054 54.9077 54.908C26.8051 83.0106 26.8051 128.574 54.9077 156.676C83.0103 184.779 128.574 184.779 156.676 156.676Z" fill="#0F0F0F"/>
<path opacity="0.96" d="M155.337 155.343C183.439 127.24 183.439 81.6771 155.337 53.5745C127.234 25.4719 81.6706 25.4719 53.568 53.5745C25.4654 81.6771 25.4652 127.241 53.5678 155.343C81.6704 183.446 127.234 183.446 155.337 155.343Z" fill="#0A0A0A"/>
<path opacity="0.98" d="M153.993 154C182.095 125.897 182.095 80.3341 153.993 52.2315C125.89 24.1289 80.3267 24.1289 52.2241 52.2315C24.1215 80.3341 24.1215 125.897 52.2241 154C80.3267 182.103 125.89 182.103 153.993 154Z" fill="#050505"/>
<path d="M152.653 152.653C180.755 124.55 180.756 78.987 152.653 50.8844C124.55 22.7818 78.9868 22.782 50.8842 50.8845C22.7816 78.9872 22.7816 124.55 50.8842 152.653C78.9868 180.756 124.55 180.756 152.653 152.653Z" fill="black"/>
</g>
<path d="M101.641 176.286C86.6093 176.286 71.9154 171.858 59.4173 163.562C46.9191 155.266 37.1782 143.474 31.4259 129.678C25.6736 115.882 24.1685 100.702 27.101 86.0564C30.0334 71.4108 37.2717 57.9579 47.9005 47.3991C58.5293 36.8402 72.0713 29.6496 86.8138 26.7364C101.556 23.8232 116.838 25.3184 130.725 31.0328C144.612 36.7472 156.482 46.4242 164.833 58.8401C173.183 71.256 177.641 85.8532 177.641 100.786C177.641 120.81 169.634 140.013 155.381 154.172C141.128 168.331 121.797 176.286 101.641 176.286Z" fill="url(#paint0_linear_2498_3283)"/>
<path d="M101.641 172.286C87.4002 172.286 73.4795 168.092 61.639 160.235C49.7986 152.379 40.5702 141.211 35.1208 128.146C29.6715 115.081 28.2459 100.704 31.0245 86.8346C33.8031 72.9648 40.6612 60.2248 50.7311 50.2255C60.801 40.2263 73.6307 33.417 87.5977 30.6588C101.565 27.9006 116.042 29.3174 129.198 34.7299C142.354 40.1424 153.598 49.3076 161.509 61.0665C169.42 72.8254 173.642 86.6498 173.641 100.791C173.639 119.753 166.053 137.938 152.55 151.346C139.048 164.753 120.735 172.286 101.641 172.286Z" fill="url(#paint1_linear_2498_3283)"/>
<path d="M36.6406 174.534L22.6406 178.286L26.3925 164.286L36.6406 174.534Z" fill="#4D4D4D"/>
<path d="M185.641 5.28564H181.641V6.28564H185.641V5.28564Z" fill="#32B4AF"/>
<path d="M69.9665 111.286V107.506L75.9585 101.262C76.6865 100.515 77.2092 99.8616 77.5265 99.3016C77.8438 98.7416 78.0025 98.1723 78.0025 97.5936C78.0025 96.8843 77.7598 96.3523 77.2745 95.9976C76.8078 95.643 76.1265 95.4656 75.2305 95.4656C74.4838 95.4656 73.7185 95.6056 72.9345 95.8856C72.1692 96.147 71.3945 96.5763 70.6105 97.1736L69.0145 93.4216C69.8918 92.7496 70.9465 92.2176 72.1785 91.8256C73.4105 91.4336 74.6798 91.2376 75.9865 91.2376C78.2825 91.2376 80.0278 91.7323 81.2225 92.7216C82.4358 93.711 83.0425 95.139 83.0425 97.0056C83.0425 98.2003 82.7625 99.3483 82.2025 100.45C81.6612 101.532 80.7558 102.69 79.4865 103.922L74.8945 108.402V107.086H83.7705V111.286H69.9665ZM93.2516 111.594C90.8249 111.594 88.9582 110.707 87.6516 108.934C86.3636 107.142 85.7196 104.612 85.7196 101.346C85.7196 98.0416 86.3636 95.531 87.6516 93.8136C88.9582 92.0963 90.8249 91.2376 93.2516 91.2376C95.6969 91.2376 97.5636 92.0963 98.8516 93.8136C100.14 95.531 100.784 98.0323 100.784 101.318C100.784 104.603 100.13 107.142 98.8236 108.934C97.5356 110.707 95.6782 111.594 93.2516 111.594ZM93.2516 107.478C94.1476 107.478 94.8102 106.992 95.2396 106.022C95.6876 105.051 95.9116 103.492 95.9116 101.346C95.9116 99.1803 95.6876 97.6403 95.2396 96.7256C94.8102 95.7923 94.1476 95.3256 93.2516 95.3256C92.3556 95.3256 91.6836 95.7923 91.2356 96.7256C90.8062 97.6403 90.5916 99.171 90.5916 101.318C90.5916 103.483 90.8062 105.051 91.2356 106.022C91.6836 106.992 92.3556 107.478 93.2516 107.478ZM103.545 111.286V107.506L109.537 101.262C110.265 100.515 110.787 99.8616 111.105 99.3016C111.422 98.7416 111.581 98.1723 111.581 97.5936C111.581 96.8843 111.338 96.3523 110.853 95.9976C110.386 95.643 109.705 95.4656 108.809 95.4656C108.062 95.4656 107.297 95.6056 106.513 95.8856C105.747 96.147 104.973 96.5763 104.189 97.1736L102.593 93.4216C103.47 92.7496 104.525 92.2176 105.757 91.8256C106.989 91.4336 108.258 91.2376 109.565 91.2376C111.861 91.2376 113.606 91.7323 114.801 92.7216C116.014 93.711 116.621 95.139 116.621 97.0056C116.621 98.2003 116.341 99.3483 115.781 100.45C115.239 101.532 114.334 102.69 113.065 103.922L108.473 108.402V107.086H117.349V111.286H103.545ZM120.978 111.286V107.086H125.402V95.8296H127.754L121.454 99.4136V94.6536L126.886 91.5456H130.554V107.086H134.67V111.286H120.978Z" fill="#32B4AF"/>
<defs>
<linearGradient id="paint0_linear_2498_3283" x1="49.9138" y1="47.3246" x2="155.014" y2="157.387" gradientUnits="userSpaceOnUse">
<stop stop-color="white"/>
<stop offset="0.37" stop-color="#FBFBFB"/>
<stop offset="0.7" stop-color="#F1F1F1"/>
<stop offset="1" stop-color="#DFDFDF"/>
</linearGradient>
<linearGradient id="paint1_linear_2498_3283" x1="51.3735" y1="47.4876" x2="151.529" y2="155.182" gradientUnits="userSpaceOnUse">
<stop stop-color="#DFDFDF"/>
<stop offset="0.3" stop-color="#F1F1F1"/>
<stop offset="0.63" stop-color="#FBFBFB"/>
<stop offset="1" stop-color="white"/>
</linearGradient>
</defs>
</svg>
