<svg width="244" height="244" viewBox="0 0 244 244" fill="none" xmlns="http://www.w3.org/2000/svg">
<g style="mix-blend-mode:multiply" opacity="0.3">
<path opacity="0.02" d="M168.828 240.787C208.571 240.787 240.79 208.569 240.79 168.826C240.79 129.083 208.571 96.865 168.828 96.865C129.085 96.865 96.8672 129.083 96.8672 168.826C96.8672 208.569 129.085 240.787 168.828 240.787Z" fill="#FAFAFA"/>
<path opacity="0.04" d="M167.485 239.45C207.228 239.45 239.446 207.232 239.446 167.489C239.446 127.746 207.228 95.5276 167.485 95.5276C127.742 95.5276 95.5234 127.746 95.5234 167.489C95.5234 207.232 127.742 239.45 167.485 239.45Z" fill="#F5F5F5"/>
<path opacity="0.06" d="M166.145 238.107C205.888 238.107 238.106 205.889 238.106 166.146C238.106 126.403 205.888 94.1846 166.145 94.1846C126.402 94.1846 94.1836 126.403 94.1836 166.146C94.1836 205.889 126.402 238.107 166.145 238.107Z" fill="#F0F0F0"/>
<path opacity="0.08" d="M164.801 236.769C204.544 236.769 236.762 204.551 236.762 164.808C236.762 125.065 204.544 92.8469 164.801 92.8469C125.058 92.8469 92.8398 125.065 92.8398 164.808C92.8398 204.551 125.058 236.769 164.801 236.769Z" fill="#EBEBEB"/>
<path opacity="0.1" d="M163.465 235.426C203.208 235.426 235.426 203.208 235.426 163.465C235.426 123.722 203.208 91.5039 163.465 91.5039C123.722 91.5039 91.5039 123.722 91.5039 163.465C91.5039 203.208 123.722 235.426 163.465 235.426Z" fill="#E6E6E6"/>
<path opacity="0.12" d="M162.121 234.083C201.864 234.083 234.083 201.865 234.083 162.122C234.083 122.379 201.864 90.1606 162.121 90.1606C122.378 90.1606 90.1602 122.379 90.1602 162.122C90.1602 201.865 122.378 234.083 162.121 234.083Z" fill="#E1E1E1"/>
<path opacity="0.14" d="M160.778 232.746C200.521 232.746 232.739 200.528 232.739 160.784C232.739 121.041 200.521 88.8232 160.778 88.8232C121.035 88.8232 88.8164 121.041 88.8164 160.784C88.8164 200.528 121.035 232.746 160.778 232.746Z" fill="#DCDCDC"/>
<path opacity="0.16" d="M159.442 231.403C199.185 231.403 231.403 199.185 231.403 159.441C231.403 119.698 199.185 87.4802 159.442 87.4802C119.699 87.4802 87.4805 119.698 87.4805 159.441C87.4805 199.185 119.699 231.403 159.442 231.403Z" fill="#D7D7D7"/>
<path opacity="0.18" d="M158.098 230.06C197.841 230.06 230.059 197.842 230.059 158.098C230.059 118.355 197.841 86.1372 158.098 86.1372C118.355 86.1372 86.1367 118.355 86.1367 158.098C86.1367 197.842 118.355 230.06 158.098 230.06Z" fill="#D2D2D2"/>
<path opacity="0.2" d="M156.754 228.722C196.497 228.722 228.715 196.504 228.715 156.761C228.715 117.018 196.497 84.7998 156.754 84.7998C117.011 84.7998 84.793 117.018 84.793 156.761C84.793 196.504 117.011 228.722 156.754 228.722Z" fill="#CDCDCD"/>
<path opacity="0.22" d="M155.418 227.379C195.161 227.379 227.379 195.161 227.379 155.418C227.379 115.675 195.161 83.4565 155.418 83.4565C115.675 83.4565 83.457 115.675 83.457 155.418C83.457 195.161 115.675 227.379 155.418 227.379Z" fill="#C8C8C8"/>
<path opacity="0.24" d="M154.074 226.036C193.818 226.036 226.036 193.818 226.036 154.075C226.036 114.332 193.818 82.1135 154.074 82.1135C114.331 82.1135 82.1133 114.332 82.1133 154.075C82.1133 193.818 114.331 226.036 154.074 226.036Z" fill="#C3C3C3"/>
<path opacity="0.25" d="M152.731 224.699C192.474 224.699 224.692 192.48 224.692 152.737C224.692 112.994 192.474 80.7761 152.731 80.7761C112.988 80.7761 80.7695 112.994 80.7695 152.737C80.7695 192.48 112.988 224.699 152.731 224.699Z" fill="#BEBEBE"/>
<path opacity="0.27" d="M151.395 223.355C191.138 223.355 223.356 191.137 223.356 151.394C223.356 111.651 191.138 79.4329 151.395 79.4329C111.652 79.4329 79.4336 111.651 79.4336 151.394C79.4336 191.137 111.652 223.355 151.395 223.355Z" fill="#B9B9B9"/>
<path opacity="0.29" d="M150.051 222.012C189.794 222.012 222.012 189.794 222.012 150.051C222.012 110.308 189.794 78.0898 150.051 78.0898C110.308 78.0898 78.0898 110.308 78.0898 150.051C78.0898 189.794 110.308 222.012 150.051 222.012Z" fill="#B4B4B4"/>
<path opacity="0.31" d="M148.707 220.675C188.45 220.675 220.668 188.457 220.668 148.714C220.668 108.971 188.45 76.7524 148.707 76.7524C108.964 76.7524 76.7461 108.971 76.7461 148.714C76.7461 188.457 108.964 220.675 148.707 220.675Z" fill="#AFAFAF"/>
<path opacity="0.33" d="M147.371 219.332C187.114 219.332 219.333 187.113 219.333 147.37C219.333 107.627 187.114 75.4092 147.371 75.4092C107.628 75.4092 75.4102 107.627 75.4102 147.37C75.4102 187.113 107.628 219.332 147.371 219.332Z" fill="#AAAAAA"/>
<path opacity="0.35" d="M146.028 217.989C185.771 217.989 217.989 185.77 217.989 146.027C217.989 106.284 185.771 74.0662 146.028 74.0662C106.285 74.0662 74.0664 106.284 74.0664 146.027C74.0664 185.77 106.285 217.989 146.028 217.989Z" fill="#A5A5A5"/>
<path opacity="0.37" d="M144.684 216.651C184.427 216.651 216.645 184.433 216.645 144.69C216.645 104.947 184.427 72.7288 144.684 72.7288C104.941 72.7288 72.7227 104.947 72.7227 144.69C72.7227 184.433 104.941 216.651 144.684 216.651Z" fill="#A0A0A0"/>
<path opacity="0.39" d="M143.348 215.308C183.091 215.308 215.309 183.09 215.309 143.347C215.309 103.604 183.091 71.3855 143.348 71.3855C103.605 71.3855 71.3867 103.604 71.3867 143.347C71.3867 183.09 103.605 215.308 143.348 215.308Z" fill="#9B9B9B"/>
<path opacity="0.41" d="M192.891 192.894C220.994 164.791 220.994 119.228 192.891 91.125C164.788 63.0224 119.225 63.0224 91.1225 91.125C63.0199 119.228 63.0199 164.791 91.1225 192.894C119.225 220.996 164.788 220.996 192.891 192.894Z" fill="#969696"/>
<path opacity="0.43" d="M191.547 191.55C219.65 163.448 219.65 117.884 191.547 89.7818C163.445 61.6792 117.881 61.6792 89.7788 89.7818C61.6762 117.884 61.6762 163.448 89.7788 191.55C117.881 219.653 163.445 219.653 191.547 191.55Z" fill="#919191"/>
<path opacity="0.45" d="M190.211 190.207C218.314 162.105 218.314 116.541 190.211 88.4388C162.109 60.3362 116.545 60.3362 88.4428 88.4387C60.3402 116.541 60.3403 162.105 88.4429 190.207C116.545 218.31 162.109 218.31 190.211 190.207Z" fill="#8C8C8C"/>
<path opacity="0.47" d="M188.868 188.87C216.97 160.767 216.97 115.204 188.868 87.1014C160.765 58.9988 115.202 58.9988 87.0991 87.1013C58.9965 115.204 58.9965 160.767 87.0991 188.87C115.202 216.972 160.765 216.972 188.868 188.87Z" fill="#878787"/>
<path opacity="0.49" d="M187.52 187.527C215.623 159.424 215.623 113.861 187.52 85.7584C159.417 57.6558 113.854 57.6557 85.7514 85.7583C57.6488 113.861 57.6489 159.424 85.7515 187.527C113.854 215.629 159.417 215.629 187.52 187.527Z" fill="#828282"/>
<path opacity="0.51" d="M186.188 186.184C214.291 158.081 214.291 112.518 186.188 84.4151C158.085 56.3125 112.522 56.3125 84.4194 84.4151C56.3168 112.518 56.3168 158.081 84.4194 186.184C112.522 214.286 158.085 214.286 186.188 186.184Z" fill="#7D7D7D"/>
<path opacity="0.53" d="M184.844 184.846C212.947 156.744 212.947 111.18 184.844 83.0777C156.742 54.9751 111.178 54.9751 83.0757 83.0777C54.9731 111.18 54.9731 156.744 83.0757 184.846C111.178 212.949 156.742 212.949 184.844 184.846Z" fill="#787878"/>
<path opacity="0.55" d="M183.5 183.499C211.603 155.396 211.603 109.833 183.5 81.7305C155.398 53.6279 109.835 53.6279 81.7319 81.7305C53.6293 109.833 53.6293 155.396 81.7319 183.499C109.835 211.602 155.398 211.602 183.5 183.499Z" fill="#737373"/>
<path opacity="0.57" d="M182.164 182.16C210.267 154.057 210.267 108.494 182.164 80.3915C154.062 52.2889 108.498 52.2889 80.3959 80.3915C52.2933 108.494 52.2934 154.057 80.396 182.16C108.499 210.262 154.062 210.263 182.164 182.16Z" fill="#6E6E6E"/>
<path opacity="0.59" d="M180.821 180.822C208.923 152.72 208.923 107.156 180.821 79.0539C152.718 50.9513 107.155 50.9513 79.0523 79.0539C50.9497 107.156 50.9496 152.72 79.0522 180.822C107.155 208.925 152.718 208.925 180.821 180.822Z" fill="#696969"/>
<path opacity="0.61" d="M179.481 179.475C207.583 151.373 207.583 105.81 179.481 77.7069C151.378 49.6043 105.815 49.6043 77.7123 77.7069C49.6097 105.81 49.6098 151.373 77.7124 179.475C105.815 207.578 151.378 207.578 179.481 179.475Z" fill="#646464"/>
<path opacity="0.63" d="M178.137 178.136C206.24 150.034 206.24 104.47 178.137 76.3676C150.035 48.265 104.471 48.265 76.3687 76.3676C48.2661 104.47 48.266 150.034 76.3686 178.136C104.471 206.239 150.035 206.239 178.137 178.136Z" fill="#5F5F5F"/>
<path opacity="0.65" d="M176.793 176.799C204.896 148.696 204.896 103.133 176.793 75.0303C148.691 46.9277 103.127 46.9277 75.0249 75.0303C46.9223 103.133 46.9223 148.696 75.0249 176.799C103.127 204.901 148.691 204.901 176.793 176.799Z" fill="#5A5A5A"/>
<path opacity="0.67" d="M175.454 175.452C203.556 147.349 203.556 101.786 175.454 73.683C147.351 45.5804 101.788 45.5804 73.6851 73.683C45.5825 101.786 45.5824 147.349 73.685 175.452C101.788 203.554 147.351 203.554 175.454 175.452Z" fill="#555555"/>
<path opacity="0.69" d="M174.114 174.113C202.216 146.01 202.216 100.447 174.114 72.3442C146.011 44.2416 100.448 44.2416 72.3453 72.3442C44.2427 100.447 44.2426 146.01 72.3452 174.113C100.448 202.215 146.011 202.215 174.114 174.113Z" fill="#505050"/>
<path opacity="0.71" d="M172.77 172.775C200.873 144.673 200.873 99.1092 172.77 71.0066C144.667 42.904 99.104 42.904 71.0014 71.0066C42.8988 99.1092 42.8988 144.673 71.0014 172.775C99.104 200.878 144.667 200.878 172.77 172.775Z" fill="#4B4B4B"/>
<path opacity="0.73" d="M171.434 171.432C199.537 143.329 199.537 97.7661 171.434 69.6635C143.332 41.5609 97.7682 41.5609 69.6656 69.6635C41.563 97.7661 41.5629 143.33 69.6655 171.432C97.7681 199.535 143.332 199.535 171.434 171.432Z" fill="#464646"/>
<path opacity="0.75" d="M170.09 170.095C198.193 141.992 198.193 96.4288 170.09 68.3262C141.988 40.2236 96.4243 40.2236 68.3217 68.3262C40.2191 96.4288 40.2192 141.992 68.3218 170.095C96.4244 198.197 141.988 198.197 170.09 170.095Z" fill="#414141"/>
<path opacity="0.76" d="M168.747 168.751C196.849 140.649 196.849 95.0856 168.747 66.983C140.644 38.8804 95.0806 38.8803 66.978 66.9829C38.8754 95.0855 38.8754 140.649 66.978 168.751C95.0806 196.854 140.644 196.854 168.747 168.751Z" fill="#3C3C3C"/>
<path opacity="0.78" d="M167.407 167.408C195.509 139.306 195.509 93.7425 167.407 65.6399C139.304 37.5373 93.7408 37.5373 65.6382 65.6399C37.5356 93.7425 37.5355 139.306 65.6381 167.408C93.7407 195.511 139.304 195.511 167.407 167.408Z" fill="#373737"/>
<path opacity="0.8" d="M166.063 166.071C194.166 137.968 194.165 92.4048 166.063 64.3022C137.96 36.1996 92.397 36.1997 64.2944 64.3023C36.1918 92.4049 36.1918 137.968 64.2944 166.071C92.397 194.173 137.96 194.173 166.063 166.071Z" fill="#323232"/>
<path opacity="0.82" d="M164.719 164.728C192.822 136.625 192.822 91.062 164.719 62.9594C136.616 34.8568 91.0531 34.8568 62.9506 62.9594C34.848 91.062 34.8481 136.625 62.9507 164.728C91.0533 192.83 136.616 192.83 164.719 164.728Z" fill="#2D2D2D"/>
<path opacity="0.84" d="M163.383 163.385C191.486 135.282 191.486 89.7188 163.383 61.6162C135.281 33.5136 89.7173 33.5136 61.6147 61.6162C33.5121 89.7188 33.5121 135.282 61.6147 163.385C89.7173 191.487 135.281 191.487 163.383 163.385Z" fill="#282828"/>
<path opacity="0.86" d="M162.039 162.047C190.142 133.945 190.142 88.3815 162.039 60.2789C133.937 32.1763 88.3735 32.1763 60.2709 60.2789C32.1683 88.3815 32.1684 133.945 60.271 162.047C88.3736 190.15 133.937 190.15 162.039 162.047Z" fill="#232323"/>
<path opacity="0.88" d="M160.696 160.704C188.798 132.601 188.798 87.0381 160.696 58.9355C132.593 30.8329 87.0299 30.8329 58.9273 58.9355C30.8247 87.0381 30.8246 132.601 58.9272 160.704C87.0298 188.807 132.593 188.807 160.696 160.704Z" fill="#1E1E1E"/>
<path opacity="0.9" d="M159.36 159.361C187.462 131.258 187.462 85.695 159.36 57.5924C131.257 29.4898 85.6938 29.4898 57.5912 57.5924C29.4886 85.695 29.4887 131.258 57.5913 159.361C85.6939 187.463 131.257 187.464 159.36 159.361Z" fill="#191919"/>
<path opacity="0.92" d="M158.016 158.024C186.119 129.921 186.119 84.3577 158.016 56.2551C129.914 28.1525 84.3502 28.1525 56.2476 56.2551C28.145 84.3577 28.1449 129.921 56.2475 158.024C84.3501 186.126 129.914 186.126 158.016 158.024Z" fill="#141414"/>
<path opacity="0.94" d="M156.676 156.676C184.779 128.574 184.779 83.0106 156.676 54.908C128.574 26.8054 83.0103 26.8054 54.9077 54.908C26.8051 83.0106 26.8051 128.574 54.9077 156.676C83.0103 184.779 128.574 184.779 156.676 156.676Z" fill="#0F0F0F"/>
<path opacity="0.96" d="M155.336 155.337C183.439 127.235 183.439 81.6714 155.336 53.5688C127.234 25.4662 81.6705 25.4662 53.5679 53.5688C25.4653 81.6714 25.4653 127.235 53.5679 155.337C81.6705 183.44 127.234 183.44 155.336 155.337Z" fill="#0A0A0A"/>
<path opacity="0.98" d="M153.993 154C182.095 125.897 182.095 80.334 153.993 52.2314C125.89 24.1288 80.3268 24.1288 52.2242 52.2314C24.1216 80.334 24.1215 125.897 52.2241 154C80.3267 182.103 125.89 182.102 153.993 154Z" fill="#050505"/>
<path d="M152.653 152.653C180.755 124.55 180.755 78.9868 152.653 50.8842C124.55 22.7816 78.9867 22.7818 50.8842 50.8844C22.7816 78.987 22.7817 124.55 50.8843 152.653C78.9869 180.755 124.55 180.756 152.653 152.653Z" fill="black"/>
</g>
<path d="M177.237 102.985C178.178 61.1901 145.06 26.5453 103.265 25.6041C61.4695 24.663 26.825 57.7818 25.8838 99.5769C24.9426 141.372 58.0613 176.016 99.8563 176.958C141.651 177.899 176.296 144.78 177.237 102.985Z" fill="url(#paint0_linear_2498_3282)"/>
<path d="M171.693 115.23C179.397 76.4609 154.215 38.7866 115.446 31.082C76.6769 23.3774 39.0026 48.5601 31.298 87.3291C23.5934 126.098 48.7761 163.772 87.545 171.477C126.314 179.181 163.988 153.999 171.693 115.23Z" fill="url(#paint1_linear_2498_3282)"/>
<path d="M175.24 164.929L178.723 178.929L165.723 175.177L175.24 164.929Z" fill="#4D4D4D"/>
<path d="M70.0485 111.929V108.149L76.0405 101.905C76.7685 101.159 77.2912 100.505 77.6085 99.9452C77.9259 99.3852 78.0845 98.8159 78.0845 98.2372C78.0845 97.5279 77.8419 96.9959 77.3565 96.6412C76.8899 96.2865 76.2085 96.1092 75.3125 96.1092C74.5659 96.1092 73.8005 96.2492 73.0165 96.5292C72.2512 96.7905 71.4765 97.2199 70.6925 97.8172L69.0965 94.0652C69.9739 93.3932 71.0285 92.8612 72.2605 92.4692C73.4925 92.0772 74.7619 91.8812 76.0685 91.8812C78.3645 91.8812 80.1099 92.3759 81.3045 93.3652C82.5179 94.3545 83.1245 95.7825 83.1245 97.6492C83.1245 98.8439 82.8445 99.9919 82.2845 101.093C81.7432 102.176 80.8379 103.333 79.5685 104.565L74.9765 109.045V107.729H83.8525V111.929H70.0485ZM93.3336 112.237C90.9069 112.237 89.0403 111.351 87.7336 109.577C86.4456 107.785 85.8016 105.256 85.8016 101.989C85.8016 98.6852 86.4456 96.1745 87.7336 94.4572C89.0403 92.7399 90.9069 91.8812 93.3336 91.8812C95.7789 91.8812 97.6456 92.7399 98.9336 94.4572C100.222 96.1745 100.866 98.6759 100.866 101.961C100.866 105.247 100.212 107.785 98.9056 109.577C97.6176 111.351 95.7603 112.237 93.3336 112.237ZM93.3336 108.121C94.2296 108.121 94.8923 107.636 95.3216 106.665C95.7696 105.695 95.9936 104.136 95.9936 101.989C95.9936 99.8239 95.7696 98.2839 95.3216 97.3692C94.8923 96.4359 94.2296 95.9692 93.3336 95.9692C92.4376 95.9692 91.7656 96.4359 91.3176 97.3692C90.8883 98.2839 90.6736 99.8145 90.6736 101.961C90.6736 104.127 90.8883 105.695 91.3176 106.665C91.7656 107.636 92.4376 108.121 93.3336 108.121ZM104.271 111.929V107.729H108.695V96.4732H111.047L104.747 100.057V95.2972L110.179 92.1892H113.847V107.729H117.963V111.929H104.271ZM125.204 112.237C124.102 112.237 123.029 112.06 121.984 111.705C120.938 111.351 120.005 110.847 119.184 110.193L120.78 106.441C121.452 106.964 122.17 107.356 122.936 107.617C123.701 107.879 124.466 108.009 125.232 108.009C126.65 108.009 127.714 107.58 128.424 106.721C129.133 105.844 129.488 104.537 129.488 102.801V101.345H129.936C129.768 102.129 129.45 102.811 128.984 103.389C128.536 103.968 127.976 104.407 127.304 104.705C126.632 105.004 125.876 105.153 125.036 105.153C123.972 105.153 123.001 104.883 122.124 104.341C121.246 103.781 120.556 103.016 120.052 102.045C119.548 101.056 119.296 99.9545 119.296 98.7412C119.296 97.3972 119.585 96.2119 120.164 95.1852C120.742 94.1585 121.545 93.3559 122.572 92.7772C123.617 92.1799 124.802 91.8812 126.128 91.8812C128.741 91.8812 130.757 92.7492 132.176 94.4852C133.594 96.2212 134.304 98.6852 134.304 101.877C134.304 104.043 133.94 105.9 133.212 107.449C132.502 108.999 131.457 110.184 130.076 111.005C128.713 111.827 127.089 112.237 125.204 112.237ZM126.408 101.233C126.912 101.233 127.341 101.121 127.696 100.897C128.069 100.673 128.358 100.356 128.564 99.9452C128.769 99.5345 128.872 99.0585 128.872 98.5172C128.872 97.9759 128.769 97.4999 128.564 97.0892C128.358 96.6785 128.069 96.3612 127.696 96.1372C127.341 95.9132 126.912 95.8012 126.408 95.8012C125.922 95.8012 125.493 95.9132 125.12 96.1372C124.765 96.3612 124.485 96.6785 124.28 97.0892C124.074 97.4999 123.972 97.9759 123.972 98.5172C123.972 99.0585 124.074 99.5345 124.28 99.9452C124.485 100.356 124.765 100.673 125.12 100.897C125.493 101.121 125.922 101.233 126.408 101.233Z" fill="#8BC73F"/>
<defs>
<linearGradient id="paint0_linear_2498_3282" x1="46.5135" y1="47.7494" x2="157.017" y2="154.852" gradientUnits="userSpaceOnUse">
<stop stop-color="white"/>
<stop offset="0.37" stop-color="#FBFBFB"/>
<stop offset="0.7" stop-color="#F1F1F1"/>
<stop offset="1" stop-color="#DFDFDF"/>
</linearGradient>
<linearGradient id="paint1_linear_2498_3282" x1="46.7977" y1="52.1784" x2="163.926" y2="157.1" gradientUnits="userSpaceOnUse">
<stop stop-color="#DFDFDF"/>
<stop offset="0.3" stop-color="#F1F1F1"/>
<stop offset="0.63" stop-color="#FBFBFB"/>
<stop offset="1" stop-color="white"/>
</linearGradient>
</defs>
</svg>
