<svg width="244" height="244" viewBox="0 0 244 244" fill="none" xmlns="http://www.w3.org/2000/svg">
<g style="mix-blend-mode:multiply" opacity="0.3">
<path opacity="0.02" d="M168.828 240.787C208.571 240.787 240.79 208.569 240.79 168.826C240.79 129.083 208.571 96.865 168.828 96.865C129.085 96.865 96.8672 129.083 96.8672 168.826C96.8672 208.569 129.085 240.787 168.828 240.787Z" fill="#FAFAFA"/>
<path opacity="0.04" d="M167.485 239.45C207.228 239.45 239.446 207.232 239.446 167.489C239.446 127.746 207.228 95.5276 167.485 95.5276C127.742 95.5276 95.5234 127.746 95.5234 167.489C95.5234 207.232 127.742 239.45 167.485 239.45Z" fill="#F5F5F5"/>
<path opacity="0.06" d="M166.145 238.107C205.888 238.107 238.106 205.889 238.106 166.146C238.106 126.402 205.888 94.1843 166.145 94.1843C126.402 94.1843 94.1836 126.402 94.1836 166.146C94.1836 205.889 126.402 238.107 166.145 238.107Z" fill="#F0F0F0"/>
<path opacity="0.08" d="M164.801 236.77C204.544 236.77 236.762 204.551 236.762 164.808C236.762 125.065 204.544 92.8472 164.801 92.8472C125.058 92.8472 92.8398 125.065 92.8398 164.808C92.8398 204.551 125.058 236.77 164.801 236.77Z" fill="#EBEBEB"/>
<path opacity="0.1" d="M163.465 235.426C203.208 235.426 235.426 203.208 235.426 163.465C235.426 123.722 203.208 91.5039 163.465 91.5039C123.722 91.5039 91.5039 123.722 91.5039 163.465C91.5039 203.208 123.722 235.426 163.465 235.426Z" fill="#E6E6E6"/>
<path opacity="0.12" d="M162.121 234.083C201.864 234.083 234.083 201.865 234.083 162.122C234.083 122.379 201.864 90.1609 162.121 90.1609C122.378 90.1609 90.1602 122.379 90.1602 162.122C90.1602 201.865 122.378 234.083 162.121 234.083Z" fill="#E1E1E1"/>
<path opacity="0.14" d="M160.778 232.746C200.521 232.746 232.739 200.528 232.739 160.784C232.739 121.041 200.521 88.8232 160.778 88.8232C121.035 88.8232 88.8164 121.041 88.8164 160.784C88.8164 200.528 121.035 232.746 160.778 232.746Z" fill="#DCDCDC"/>
<path opacity="0.16" d="M159.442 231.403C199.185 231.403 231.403 199.184 231.403 159.441C231.403 119.698 199.185 87.4802 159.442 87.4802C119.699 87.4802 87.4805 119.698 87.4805 159.441C87.4805 199.184 119.699 231.403 159.442 231.403Z" fill="#D7D7D7"/>
<path opacity="0.18" d="M158.098 230.06C197.841 230.06 230.059 197.841 230.059 158.098C230.059 118.355 197.841 86.1372 158.098 86.1372C118.355 86.1372 86.1367 118.355 86.1367 158.098C86.1367 197.841 118.355 230.06 158.098 230.06Z" fill="#D2D2D2"/>
<path opacity="0.2" d="M156.754 228.722C196.497 228.722 228.715 196.504 228.715 156.761C228.715 117.018 196.497 84.7998 156.754 84.7998C117.011 84.7998 84.793 117.018 84.793 156.761C84.793 196.504 117.011 228.722 156.754 228.722Z" fill="#CDCDCD"/>
<path opacity="0.22" d="M155.418 227.379C195.161 227.379 227.379 195.161 227.379 155.418C227.379 115.675 195.161 83.4565 155.418 83.4565C115.675 83.4565 83.457 115.675 83.457 155.418C83.457 195.161 115.675 227.379 155.418 227.379Z" fill="#C8C8C8"/>
<path opacity="0.24" d="M154.074 226.036C193.818 226.036 226.036 193.818 226.036 154.075C226.036 114.332 193.818 82.1135 154.074 82.1135C114.331 82.1135 82.1133 114.332 82.1133 154.075C82.1133 193.818 114.331 226.036 154.074 226.036Z" fill="#C3C3C3"/>
<path opacity="0.25" d="M152.731 224.699C192.474 224.699 224.692 192.48 224.692 152.737C224.692 112.994 192.474 80.7761 152.731 80.7761C112.988 80.7761 80.7695 112.994 80.7695 152.737C80.7695 192.48 112.988 224.699 152.731 224.699Z" fill="#BEBEBE"/>
<path opacity="0.27" d="M151.395 223.355C191.138 223.355 223.356 191.137 223.356 151.394C223.356 111.651 191.138 79.4329 151.395 79.4329C111.652 79.4329 79.4336 111.651 79.4336 151.394C79.4336 191.137 111.652 223.355 151.395 223.355Z" fill="#B9B9B9"/>
<path opacity="0.29" d="M150.051 222.012C189.794 222.012 222.012 189.794 222.012 150.051C222.012 110.308 189.794 78.0898 150.051 78.0898C110.308 78.0898 78.0898 110.308 78.0898 150.051C78.0898 189.794 110.308 222.012 150.051 222.012Z" fill="#B4B4B4"/>
<path opacity="0.31" d="M148.707 220.675C188.45 220.675 220.668 188.457 220.668 148.714C220.668 108.971 188.45 76.7524 148.707 76.7524C108.964 76.7524 76.7461 108.971 76.7461 148.714C76.7461 188.457 108.964 220.675 148.707 220.675Z" fill="#AFAFAF"/>
<path opacity="0.33" d="M147.371 219.332C187.114 219.332 219.333 187.113 219.333 147.37C219.333 107.627 187.114 75.4092 147.371 75.4092C107.628 75.4092 75.4102 107.627 75.4102 147.37C75.4102 187.113 107.628 219.332 147.371 219.332Z" fill="#AAAAAA"/>
<path opacity="0.35" d="M146.028 217.989C185.771 217.989 217.989 185.77 217.989 146.027C217.989 106.284 185.771 74.0662 146.028 74.0662C106.285 74.0662 74.0664 106.284 74.0664 146.027C74.0664 185.77 106.285 217.989 146.028 217.989Z" fill="#A5A5A5"/>
<path opacity="0.37" d="M144.684 216.651C184.427 216.651 216.645 184.433 216.645 144.69C216.645 104.947 184.427 72.7288 144.684 72.7288C104.941 72.7288 72.7227 104.947 72.7227 144.69C72.7227 184.433 104.941 216.651 144.684 216.651Z" fill="#A0A0A0"/>
<path opacity="0.39" d="M143.348 215.308C183.091 215.308 215.309 183.09 215.309 143.347C215.309 103.604 183.091 71.3855 143.348 71.3855C103.605 71.3855 71.3867 103.604 71.3867 143.347C71.3867 183.09 103.605 215.308 143.348 215.308Z" fill="#9B9B9B"/>
<path opacity="0.41" d="M192.891 192.894C220.994 164.791 220.994 119.228 192.891 91.125C164.788 63.0225 119.225 63.0224 91.1225 91.125C63.0199 119.228 63.02 164.791 91.1226 192.894C119.225 220.996 164.788 220.996 192.891 192.894Z" fill="#969696"/>
<path opacity="0.43" d="M191.547 191.55C219.65 163.448 219.65 117.884 191.547 89.7818C163.445 61.6792 117.881 61.6792 89.7788 89.7818C61.6762 117.884 61.6762 163.448 89.7788 191.55C117.881 219.653 163.445 219.653 191.547 191.55Z" fill="#919191"/>
<path opacity="0.45" d="M190.211 190.207C218.314 162.105 218.314 116.541 190.211 88.4387C162.109 60.3361 116.545 60.3362 88.4428 88.4387C60.3402 116.541 60.3402 162.105 88.4428 190.207C116.545 218.31 162.109 218.31 190.211 190.207Z" fill="#8C8C8C"/>
<path opacity="0.47" d="M188.868 188.87C216.97 160.767 216.97 115.204 188.868 87.1013C160.765 58.9987 115.202 58.9988 87.0991 87.1013C58.9965 115.204 58.9965 160.767 87.0991 188.87C115.202 216.972 160.765 216.972 188.868 188.87Z" fill="#878787"/>
<path opacity="0.49" d="M187.524 187.527C215.626 159.424 215.626 113.861 187.524 85.7583C159.421 57.6557 113.858 57.6557 85.7553 85.7583C57.6527 113.861 57.6527 159.424 85.7553 187.527C113.858 215.629 159.421 215.629 187.524 187.527Z" fill="#828282"/>
<path opacity="0.51" d="M186.188 186.184C214.291 158.081 214.291 112.518 186.188 84.4151C158.085 56.3125 112.522 56.3125 84.4194 84.4151C56.3168 112.518 56.3168 158.081 84.4194 186.184C112.522 214.286 158.085 214.286 186.188 186.184Z" fill="#7D7D7D"/>
<path opacity="0.53" d="M184.844 184.846C212.947 156.744 212.947 111.18 184.844 83.0777C156.742 54.9751 111.178 54.9751 83.0757 83.0777C54.9731 111.18 54.9731 156.744 83.0757 184.846C111.178 212.949 156.742 212.949 184.844 184.846Z" fill="#787878"/>
<path opacity="0.55" d="M183.504 183.499C211.607 155.396 211.607 109.833 183.504 81.7305C155.402 53.6279 109.838 53.6279 81.7358 81.7305C53.6332 109.833 53.6332 155.396 81.7358 183.499C109.838 211.602 155.402 211.602 183.504 183.499Z" fill="#737373"/>
<path opacity="0.57" d="M182.164 182.16C210.267 154.057 210.267 108.494 182.164 80.3915C154.062 52.2889 108.498 52.2889 80.3959 80.3915C52.2933 108.494 52.2934 154.057 80.396 182.16C108.499 210.262 154.062 210.263 182.164 182.16Z" fill="#6E6E6E"/>
<path opacity="0.59" d="M180.821 180.822C208.923 152.72 208.923 107.156 180.821 79.0539C152.718 50.9513 107.155 50.9513 79.0523 79.0539C50.9497 107.156 50.9496 152.72 79.0522 180.822C107.155 208.925 152.718 208.925 180.821 180.822Z" fill="#696969"/>
<path opacity="0.61" d="M179.481 179.475C207.583 151.373 207.583 105.81 179.481 77.7069C151.378 49.6043 105.815 49.6043 77.7123 77.7069C49.6097 105.81 49.6098 151.373 77.7124 179.475C105.815 207.578 151.378 207.578 179.481 179.475Z" fill="#646464"/>
<path opacity="0.63" d="M178.137 178.136C206.24 150.034 206.24 104.47 178.137 76.3676C150.035 48.265 104.471 48.265 76.3687 76.3676C48.2661 104.47 48.266 150.034 76.3686 178.136C104.471 206.239 150.035 206.239 178.137 178.136Z" fill="#5F5F5F"/>
<path opacity="0.65" d="M176.793 176.799C204.896 148.696 204.896 103.133 176.793 75.0303C148.691 46.9277 103.127 46.9277 75.0249 75.0303C46.9223 103.133 46.9223 148.696 75.0249 176.799C103.127 204.901 148.691 204.901 176.793 176.799Z" fill="#5A5A5A"/>
<path opacity="0.67" d="M175.454 175.452C203.556 147.349 203.556 101.786 175.454 73.683C147.351 45.5804 101.788 45.5804 73.6851 73.683C45.5825 101.786 45.5824 147.349 73.685 175.452C101.788 203.554 147.351 203.554 175.454 175.452Z" fill="#555555"/>
<path opacity="0.69" d="M174.114 174.112C202.216 146.01 202.216 100.447 174.114 72.3439C146.011 44.2413 100.448 44.2413 72.3453 72.3439C44.2427 100.447 44.2426 146.01 72.3452 174.113C100.448 202.215 146.011 202.215 174.114 174.112Z" fill="#505050"/>
<path opacity="0.71" d="M172.77 172.775C200.873 144.673 200.873 99.1092 172.77 71.0066C144.667 42.904 99.104 42.904 71.0014 71.0066C42.8988 99.1092 42.8988 144.673 71.0014 172.775C99.104 200.878 144.667 200.878 172.77 172.775Z" fill="#4B4B4B"/>
<path opacity="0.73" d="M171.434 171.432C199.537 143.329 199.537 97.7661 171.434 69.6635C143.331 41.5609 97.7682 41.5609 69.6656 69.6635C41.563 97.7661 41.5629 143.33 69.6655 171.432C97.7681 199.535 143.332 199.535 171.434 171.432Z" fill="#464646"/>
<path opacity="0.75" d="M170.09 170.094C198.193 141.992 198.193 96.4286 170.09 68.326C141.988 40.2234 96.4243 40.2234 68.3217 68.326C40.2191 96.4286 40.2191 141.992 68.3217 170.094C96.4243 198.197 141.988 198.197 170.09 170.094Z" fill="#414141"/>
<path opacity="0.76" d="M168.747 168.751C196.849 140.649 196.849 95.0855 168.746 66.9829C140.644 38.8803 95.0806 38.8803 66.978 66.9829C38.8754 95.0855 38.8754 140.649 66.978 168.751C95.0806 196.854 140.644 196.854 168.747 168.751Z" fill="#3C3C3C"/>
<path opacity="0.78" d="M167.407 167.408C195.509 139.306 195.509 93.7425 167.407 65.6399C139.304 37.5373 93.7408 37.5373 65.6382 65.6399C37.5356 93.7425 37.5356 139.306 65.6382 167.408C93.7408 195.511 139.304 195.511 167.407 167.408Z" fill="#373737"/>
<path opacity="0.8" d="M166.063 166.071C194.166 137.968 194.166 92.4051 166.063 64.3025C137.96 36.1999 92.397 36.1999 64.2944 64.3025C36.1918 92.4051 36.1918 137.968 64.2944 166.071C92.397 194.174 137.96 194.174 166.063 166.071Z" fill="#323232"/>
<path opacity="0.82" d="M164.719 164.728C192.822 136.625 192.822 91.062 164.719 62.9594C136.616 34.8568 91.0531 34.8568 62.9506 62.9594C34.848 91.062 34.8481 136.625 62.9507 164.728C91.0533 192.83 136.616 192.83 164.719 164.728Z" fill="#2D2D2D"/>
<path opacity="0.84" d="M163.383 163.385C191.486 135.282 191.486 89.7189 163.383 61.6163C135.281 33.5137 89.7173 33.5136 61.6147 61.6162C33.5121 89.7188 33.5121 135.282 61.6147 163.385C89.7173 191.487 135.281 191.487 163.383 163.385Z" fill="#282828"/>
<path opacity="0.86" d="M162.039 162.047C190.142 133.945 190.142 88.3815 162.039 60.2789C133.937 32.1763 88.3735 32.1763 60.2709 60.2789C32.1683 88.3815 32.1684 133.945 60.271 162.047C88.3736 190.15 133.937 190.15 162.039 162.047Z" fill="#232323"/>
<path opacity="0.88" d="M160.696 160.704C188.798 132.601 188.798 87.0381 160.696 58.9355C132.593 30.8329 87.0299 30.8329 58.9273 58.9355C30.8247 87.0381 30.8246 132.601 58.9272 160.704C87.0298 188.807 132.593 188.807 160.696 160.704Z" fill="#1E1E1E"/>
<path opacity="0.9" d="M159.36 159.361C187.462 131.259 187.462 85.6953 159.36 57.5927C131.257 29.4901 85.6938 29.4901 57.5912 57.5927C29.4886 85.6953 29.4887 131.258 57.5913 159.361C85.6939 187.464 131.257 187.464 159.36 159.361Z" fill="#191919"/>
<path opacity="0.92" d="M158.016 158.024C186.119 129.921 186.119 84.3577 158.016 56.2551C129.914 28.1525 84.3502 28.1525 56.2476 56.2551C28.145 84.3577 28.1449 129.921 56.2475 158.024C84.3501 186.126 129.914 186.126 158.016 158.024Z" fill="#141414"/>
<path opacity="0.94" d="M156.676 156.676C184.779 128.574 184.779 83.0106 156.676 54.908C128.574 26.8054 83.0103 26.8054 54.9077 54.908C26.8051 83.0106 26.8051 128.574 54.9077 156.676C83.0103 184.779 128.574 184.779 156.676 156.676Z" fill="#0F0F0F"/>
<path opacity="0.96" d="M155.336 155.337C183.439 127.235 183.439 81.6714 155.336 53.5688C127.234 25.4662 81.6705 25.4662 53.5679 53.5688C25.4653 81.6714 25.4653 127.235 53.5679 155.337C81.6705 183.44 127.234 183.44 155.336 155.337Z" fill="#0A0A0A"/>
<path opacity="0.98" d="M153.993 154C182.095 125.897 182.095 80.334 153.993 52.2314C125.89 24.1288 80.3268 24.1288 52.2242 52.2314C24.1216 80.334 24.1215 125.897 52.2241 154C80.3267 182.103 125.89 182.102 153.993 154Z" fill="#050505"/>
<path d="M152.653 152.653C180.755 124.55 180.755 78.9868 152.653 50.8842C124.55 22.7816 78.9867 22.7818 50.8842 50.8844C22.7816 78.987 22.7817 124.55 50.8843 152.653C78.9869 180.755 124.55 180.756 152.653 152.653Z" fill="black"/>
</g>
<path d="M176.723 101.286C176.723 116.219 172.295 130.816 163.999 143.232C155.703 155.648 143.911 165.325 130.115 171.039C116.319 176.753 101.139 178.249 86.4933 175.335C71.8478 172.422 58.3949 165.232 47.8361 154.673C37.2772 144.114 30.0866 130.661 27.1734 116.015C24.2602 101.37 25.7553 86.1893 31.4697 72.3935C37.1842 58.5977 46.8612 46.8062 59.2771 38.5102C71.693 30.2141 86.2901 25.7861 101.223 25.7861C121.246 25.7861 140.45 33.7406 154.609 47.8996C168.768 62.0586 176.723 81.2623 176.723 101.286Z" fill="url(#paint0_linear_2498_3280)"/>
<path d="M152.018 152.086C179.968 124.136 179.968 78.8202 152.019 50.8703C124.069 22.9204 78.7529 22.9205 50.803 50.8704C22.8531 78.8202 22.8532 124.136 50.8031 152.086C78.753 180.036 124.069 180.036 152.018 152.086Z" fill="url(#paint1_linear_2498_3280)"/>
<path d="M175.24 163.786L178.723 177.786L165.723 174.034L175.24 163.786Z" fill="#4D4D4D"/>
<path d="M70.0485 111.786V108.006L76.0405 101.762C76.7685 101.015 77.2912 100.362 77.6085 99.8021C77.9259 99.2421 78.0845 98.6728 78.0845 98.0941C78.0845 97.3848 77.8419 96.8528 77.3565 96.4981C76.8899 96.1435 76.2085 95.9661 75.3125 95.9661C74.5659 95.9661 73.8005 96.1061 73.0165 96.3861C72.2512 96.6475 71.4765 97.0768 70.6925 97.6741L69.0965 93.9221C69.9739 93.2501 71.0285 92.7181 72.2605 92.3261C73.4925 91.9341 74.7619 91.7381 76.0685 91.7381C78.3645 91.7381 80.1099 92.2328 81.3045 93.2221C82.5179 94.2115 83.1245 95.6395 83.1245 97.5061C83.1245 98.7008 82.8445 99.8488 82.2845 100.95C81.7432 102.033 80.8379 103.19 79.5685 104.422L74.9765 108.902V107.586H83.8525V111.786H70.0485ZM93.3336 112.094C90.9069 112.094 89.0403 111.207 87.7336 109.434C86.4456 107.642 85.8016 105.113 85.8016 101.846C85.8016 98.5421 86.4456 96.0315 87.7336 94.3141C89.0403 92.5968 90.9069 91.7381 93.3336 91.7381C95.7789 91.7381 97.6456 92.5968 98.9336 94.3141C100.222 96.0315 100.866 98.5328 100.866 101.818C100.866 105.103 100.212 107.642 98.9056 109.434C97.6176 111.207 95.7603 112.094 93.3336 112.094ZM93.3336 107.978C94.2296 107.978 94.8923 107.493 95.3216 106.522C95.7696 105.551 95.9936 103.993 95.9936 101.846C95.9936 99.6808 95.7696 98.1408 95.3216 97.2261C94.8923 96.2928 94.2296 95.8261 93.3336 95.8261C92.4376 95.8261 91.7656 96.2928 91.3176 97.2261C90.8883 98.1408 90.6736 99.6715 90.6736 101.818C90.6736 103.983 90.8883 105.551 91.3176 106.522C91.7656 107.493 92.4376 107.978 93.3336 107.978ZM104.271 111.786V107.586H108.695V96.3301H111.047L104.747 99.9141V95.1541L110.179 92.0461H113.847V107.586H117.963V111.786H104.271ZM127.472 111.786V108.454H119.352V104.87L128.256 92.0461H132.372V104.618H134.948V108.454H132.372V111.786H127.472ZM127.472 104.618V98.1501H128.2L122.964 105.794V104.618H127.472Z" fill="#FA9629"/>
<defs>
<linearGradient id="paint0_linear_2498_3280" x1="47.3886" y1="45.2758" x2="159.307" y2="161.717" gradientUnits="userSpaceOnUse">
<stop stop-color="white"/>
<stop offset="0.37" stop-color="#FBFBFB"/>
<stop offset="0.7" stop-color="#F1F1F1"/>
<stop offset="1" stop-color="#DFDFDF"/>
</linearGradient>
<linearGradient id="paint1_linear_2498_3280" x1="46.6939" y1="52.4627" x2="163.822" y2="157.39" gradientUnits="userSpaceOnUse">
<stop stop-color="#DFDFDF"/>
<stop offset="0.3" stop-color="#F1F1F1"/>
<stop offset="0.63" stop-color="#FBFBFB"/>
<stop offset="1" stop-color="white"/>
</linearGradient>
</defs>
</svg>
