<svg width="248" height="249" viewBox="0 0 248 249" fill="none" xmlns="http://www.w3.org/2000/svg">
<g style="mix-blend-mode:multiply" opacity="0.3">
<path opacity="0.02" d="M174.266 246.734C214.009 246.734 246.227 214.516 246.227 174.772C246.227 135.029 214.009 102.811 174.266 102.811C134.523 102.811 102.305 135.029 102.305 174.772C102.305 214.516 134.523 246.734 174.266 246.734Z" fill="#FAFAFA"/>
<path opacity="0.04" d="M172.922 245.396C212.665 245.396 244.883 213.178 244.883 173.435C244.883 133.692 212.665 101.474 172.922 101.474C133.179 101.474 100.961 133.692 100.961 173.435C100.961 213.178 133.179 245.396 172.922 245.396Z" fill="#F5F5F5"/>
<path opacity="0.06" d="M171.586 244.053C211.329 244.053 243.547 211.835 243.547 172.092C243.547 132.349 211.329 100.131 171.586 100.131C131.843 100.131 99.625 132.349 99.625 172.092C99.625 211.835 131.843 244.053 171.586 244.053Z" fill="#F0F0F0"/>
<path opacity="0.08" d="M170.242 242.716C209.986 242.716 242.204 210.498 242.204 170.754C242.204 131.011 209.986 98.7932 170.242 98.7932C130.499 98.7932 98.2812 131.011 98.2812 170.754C98.2812 210.498 130.499 242.716 170.242 242.716Z" fill="#EBEBEB"/>
<path opacity="0.1" d="M168.903 241.373C208.646 241.373 240.864 209.155 240.864 169.411C240.864 129.668 208.646 97.4502 168.903 97.4502C129.16 97.4502 96.9414 129.668 96.9414 169.411C96.9414 209.155 129.16 241.373 168.903 241.373Z" fill="#E6E6E6"/>
<path opacity="0.12" d="M167.559 240.029C207.302 240.029 239.52 207.811 239.52 168.068C239.52 128.325 207.302 96.1069 167.559 96.1069C127.816 96.1069 95.5977 128.325 95.5977 168.068C95.5977 207.811 127.816 240.029 167.559 240.029Z" fill="#E1E1E1"/>
<path opacity="0.14" d="M166.215 238.692C205.958 238.692 238.176 206.474 238.176 166.731C238.176 126.988 205.958 94.7695 166.215 94.7695C126.472 94.7695 94.2539 126.988 94.2539 166.731C94.2539 206.474 126.472 238.692 166.215 238.692Z" fill="#DCDCDC"/>
<path opacity="0.16" d="M164.879 237.349C204.622 237.349 236.84 205.131 236.84 165.387C236.84 125.644 204.622 93.4263 164.879 93.4263C125.136 93.4263 92.918 125.644 92.918 165.387C92.918 205.131 125.136 237.349 164.879 237.349Z" fill="#D7D7D7"/>
<path opacity="0.18" d="M163.535 236.006C203.278 236.006 235.497 203.788 235.497 164.045C235.497 124.302 203.278 92.0835 163.535 92.0835C123.792 92.0835 91.5742 124.302 91.5742 164.045C91.5742 203.788 123.792 236.006 163.535 236.006Z" fill="#D2D2D2"/>
<path opacity="0.2" d="M162.192 234.668C201.935 234.668 234.153 202.45 234.153 162.707C234.153 122.964 201.935 90.7461 162.192 90.7461C122.449 90.7461 90.2305 122.964 90.2305 162.707C90.2305 202.45 122.449 234.668 162.192 234.668Z" fill="#CDCDCD"/>
<path opacity="0.22" d="M160.856 233.325C200.599 233.325 232.817 201.107 232.817 161.364C232.817 121.621 200.599 89.4028 160.856 89.4028C121.113 89.4028 88.8945 121.621 88.8945 161.364C88.8945 201.107 121.113 233.325 160.856 233.325Z" fill="#C8C8C8"/>
<path opacity="0.24" d="M159.512 231.982C199.255 231.982 231.473 199.764 231.473 160.021C231.473 120.278 199.255 88.0596 159.512 88.0596C119.769 88.0596 87.5508 120.278 87.5508 160.021C87.5508 199.764 119.769 231.982 159.512 231.982Z" fill="#C3C3C3"/>
<path opacity="0.25" d="M158.168 230.645C197.911 230.645 230.129 198.426 230.129 158.683C230.129 118.94 197.911 86.7222 158.168 86.7222C118.425 86.7222 86.207 118.94 86.207 158.683C86.207 198.426 118.425 230.645 158.168 230.645Z" fill="#BEBEBE"/>
<path opacity="0.27" d="M156.832 229.302C196.575 229.302 228.793 197.083 228.793 157.34C228.793 117.597 196.575 85.3792 156.832 85.3792C117.089 85.3792 84.8711 117.597 84.8711 157.34C84.8711 197.083 117.089 229.302 156.832 229.302Z" fill="#B9B9B9"/>
<path opacity="0.29" d="M155.489 227.959C195.232 227.959 227.45 195.74 227.45 155.997C227.45 116.254 195.232 84.0361 155.489 84.0361C115.745 84.0361 83.5273 116.254 83.5273 155.997C83.5273 195.74 115.745 227.959 155.489 227.959Z" fill="#B4B4B4"/>
<path opacity="0.31" d="M154.145 226.621C193.888 226.621 226.106 194.403 226.106 154.66C226.106 114.917 193.888 82.6987 154.145 82.6987C114.402 82.6987 82.1836 114.917 82.1836 154.66C82.1836 194.403 114.402 226.621 154.145 226.621Z" fill="#AFAFAF"/>
<path opacity="0.33" d="M152.809 225.278C192.552 225.278 224.77 193.06 224.77 153.317C224.77 113.574 192.552 81.3555 152.809 81.3555C113.066 81.3555 80.8477 113.574 80.8477 153.317C80.8477 193.06 113.066 225.278 152.809 225.278Z" fill="#AAAAAA"/>
<path opacity="0.35" d="M151.465 223.935C191.208 223.935 223.426 191.717 223.426 151.974C223.426 112.231 191.208 80.0125 151.465 80.0125C111.722 80.0125 79.5039 112.231 79.5039 151.974C79.5039 191.717 111.722 223.935 151.465 223.935Z" fill="#A5A5A5"/>
<path opacity="0.37" d="M150.121 222.597C189.864 222.597 222.083 190.379 222.083 150.636C222.083 110.893 189.864 78.6748 150.121 78.6748C110.378 78.6748 78.1602 110.893 78.1602 150.636C78.1602 190.379 110.378 222.597 150.121 222.597Z" fill="#A0A0A0"/>
<path opacity="0.39" d="M148.785 221.254C188.528 221.254 220.747 189.036 220.747 149.293C220.747 109.55 188.528 77.3318 148.785 77.3318C109.042 77.3318 76.8242 109.55 76.8242 149.293C76.8242 189.036 109.042 221.254 148.785 221.254Z" fill="#9B9B9B"/>
<path opacity="0.41" d="M147.442 219.911C187.185 219.911 219.403 187.693 219.403 147.95C219.403 108.207 187.185 75.9888 147.442 75.9888C107.699 75.9888 75.4805 108.207 75.4805 147.95C75.4805 187.693 107.699 219.911 147.442 219.911Z" fill="#969696"/>
<path opacity="0.43" d="M146.098 218.574C185.841 218.574 218.059 186.355 218.059 146.612C218.059 106.869 185.841 74.6511 146.098 74.6511C106.355 74.6511 74.1367 106.869 74.1367 146.612C74.1367 186.355 106.355 218.574 146.098 218.574Z" fill="#919191"/>
<path opacity="0.45" d="M144.762 217.231C184.505 217.231 216.723 185.012 216.723 145.269C216.723 105.526 184.505 73.3081 144.762 73.3081C105.019 73.3081 72.8008 105.526 72.8008 145.269C72.8008 185.012 105.019 217.231 144.762 217.231Z" fill="#8C8C8C"/>
<path opacity="0.47" d="M143.418 215.893C183.161 215.893 215.379 183.675 215.379 143.932C215.379 104.189 183.161 71.9707 143.418 71.9707C103.675 71.9707 71.457 104.189 71.457 143.932C71.457 183.675 103.675 215.893 143.418 215.893Z" fill="#878787"/>
<path opacity="0.49" d="M142.082 214.55C181.825 214.55 214.044 182.332 214.044 142.589C214.044 102.846 181.825 70.6277 142.082 70.6277C102.339 70.6277 70.1211 102.846 70.1211 142.589C70.1211 182.332 102.339 214.55 142.082 214.55Z" fill="#828282"/>
<path opacity="0.51" d="M191.622 192.134C219.724 164.031 219.724 118.468 191.621 90.3655C163.519 62.2629 117.956 62.2629 89.853 90.3655C61.7504 118.468 61.7504 164.031 89.853 192.134C117.956 220.237 163.519 220.237 191.622 192.134Z" fill="#7D7D7D"/>
<path opacity="0.53" d="M190.278 190.791C218.38 162.688 218.38 117.125 190.278 89.0223C162.175 60.9197 116.612 60.9196 88.5092 89.0222C60.4066 117.125 60.4067 162.688 88.5093 190.791C116.612 218.893 162.175 218.893 190.278 190.791Z" fill="#787878"/>
<path opacity="0.55" d="M188.938 189.444C217.041 161.341 217.041 115.778 188.938 87.6751C160.835 59.5725 115.272 59.5725 87.1694 87.6751C59.0668 115.778 59.0668 161.341 87.1694 189.444C115.272 217.546 160.835 217.546 188.938 189.444Z" fill="#737373"/>
<path opacity="0.57" d="M187.598 188.11C215.701 160.008 215.701 114.444 187.598 86.3418C159.495 58.2392 113.932 58.2392 85.8296 86.3418C57.727 114.444 57.727 160.008 85.8296 188.11C113.932 216.213 159.495 216.213 187.598 188.11Z" fill="#6E6E6E"/>
<path opacity="0.59" d="M186.254 186.767C214.357 158.664 214.357 113.101 186.254 84.9986C158.152 56.896 112.588 56.896 84.4858 84.9986C56.3832 113.101 56.3832 158.664 84.4858 186.767C112.588 214.87 158.152 214.87 186.254 186.767Z" fill="#696969"/>
<path opacity="0.61" d="M184.914 185.42C213.017 157.317 213.017 111.754 184.914 83.6514C156.812 55.5488 111.249 55.5488 83.146 83.6514C55.0434 111.754 55.0434 157.317 83.146 185.42C111.249 213.522 156.812 213.522 184.914 185.42Z" fill="#646464"/>
<path opacity="0.63" d="M183.575 184.086C211.677 155.984 211.677 110.42 183.575 82.3179C155.472 54.2153 109.909 54.2153 81.8061 82.3179C53.7035 110.42 53.7035 155.984 81.8061 184.086C109.909 212.189 155.472 212.189 183.575 184.086Z" fill="#5F5F5F"/>
<path opacity="0.65" d="M182.231 182.743C210.333 154.641 210.333 109.077 182.231 80.9749C154.128 52.8723 108.565 52.8723 80.4624 80.9749C52.3598 109.077 52.3598 154.641 80.4624 182.743C108.565 210.846 154.128 210.846 182.231 182.743Z" fill="#5A5A5A"/>
<path opacity="0.67" d="M180.891 181.396C208.994 153.294 208.994 107.73 180.891 79.6278C152.789 51.5252 107.225 51.5252 79.1227 79.6278C51.0201 107.73 51.0199 153.294 79.1225 181.396C107.225 209.499 152.789 209.499 180.891 181.396Z" fill="#555555"/>
<path opacity="0.69" d="M179.551 180.063C207.654 151.96 207.654 106.397 179.551 78.2945C151.449 50.1919 105.885 50.1919 77.7827 78.2945C49.6801 106.397 49.6801 151.96 77.7827 180.063C105.885 208.166 151.449 208.166 179.551 180.063Z" fill="#505050"/>
<path opacity="0.71" d="M178.211 178.72C206.314 150.617 206.314 105.054 178.211 76.9512C150.109 48.8486 104.545 48.8486 76.4428 76.9512C48.3402 105.054 48.3403 150.617 76.4429 178.72C104.545 206.822 150.109 206.822 178.211 178.72Z" fill="#4B4B4B"/>
<path opacity="0.73" d="M176.875 177.376C204.978 149.274 204.978 103.711 176.875 75.6079C148.773 47.5053 103.21 47.5053 75.1069 75.6079C47.0043 103.711 47.0043 149.274 75.1069 177.376C103.21 205.479 148.773 205.479 176.875 177.376Z" fill="#464646"/>
<path opacity="0.75" d="M175.532 176.039C203.634 147.936 203.634 102.373 175.532 74.2705C147.429 46.1679 101.866 46.1679 73.7632 74.2705C45.6606 102.373 45.6606 147.936 73.7632 176.039C101.866 204.142 147.429 204.142 175.532 176.039Z" fill="#414141"/>
<path opacity="0.76" d="M174.188 174.696C202.291 146.593 202.291 101.03 174.188 72.9275C146.085 44.8249 100.522 44.8249 72.4194 72.9275C44.3168 101.03 44.3168 146.593 72.4194 174.696C100.522 202.799 146.085 202.799 174.188 174.696Z" fill="#3C3C3C"/>
<path opacity="0.78" d="M172.848 173.359C200.951 145.256 200.951 99.6927 172.848 71.5901C144.745 43.4875 99.1822 43.4875 71.0796 71.5901C42.977 99.6927 42.977 145.256 71.0796 173.359C99.1822 201.461 144.745 201.461 172.848 173.359Z" fill="#373737"/>
<path opacity="0.8" d="M171.504 172.016C199.607 143.913 199.607 98.3497 171.504 70.2471C143.402 42.1445 97.8384 42.1445 69.7358 70.2471C41.6332 98.3497 41.6332 143.913 69.7358 172.016C97.8384 200.118 143.402 200.118 171.504 172.016Z" fill="#323232"/>
<path opacity="0.82" d="M170.161 170.672C198.263 142.57 198.263 97.0065 170.161 68.9039C142.058 40.8013 96.4947 40.8012 68.3921 68.9038C40.2895 97.0064 40.2895 142.57 68.3921 170.672C96.4947 198.775 142.058 198.775 170.161 170.672Z" fill="#2D2D2D"/>
<path opacity="0.84" d="M168.825 169.335C196.927 141.232 196.927 95.6691 168.825 67.5665C140.722 39.4639 95.1587 39.4638 67.0561 67.5664C38.9535 95.669 38.9535 141.232 67.0561 169.335C95.1587 197.438 140.722 197.438 168.825 169.335Z" fill="#282828"/>
<path opacity="0.86" d="M167.481 167.992C195.583 139.889 195.583 94.326 167.481 66.2234C139.378 38.1208 93.815 38.1208 65.7124 66.2234C37.6098 94.326 37.6098 139.889 65.7124 167.992C93.815 196.095 139.378 196.095 167.481 167.992Z" fill="#232323"/>
<path opacity="0.88" d="M166.137 166.649C194.24 138.546 194.24 92.9828 166.137 64.8802C138.035 36.7776 92.4712 36.7776 64.3686 64.8802C36.266 92.9828 36.266 138.546 64.3686 166.649C92.4712 194.751 138.035 194.751 166.137 166.649Z" fill="#1E1E1E"/>
<path opacity="0.9" d="M164.801 165.311C192.904 137.209 192.904 91.6453 164.801 63.5428C136.699 35.4402 91.1353 35.4402 63.0327 63.5428C34.9301 91.6454 34.9301 137.209 63.0327 165.311C91.1353 193.414 136.699 193.414 164.801 165.311Z" fill="#191919"/>
<path opacity="0.92" d="M163.457 163.968C191.56 135.866 191.56 90.3023 163.457 62.1997C135.355 34.0971 89.7915 34.0971 61.6889 62.1997C33.5863 90.3023 33.5863 135.866 61.6889 163.968C89.7915 192.071 135.355 192.071 163.457 163.968Z" fill="#141414"/>
<path opacity="0.94" d="M162.118 162.621C190.22 134.518 190.22 88.9552 162.118 60.8526C134.015 32.75 88.4517 32.75 60.3491 60.8526C32.2465 88.9552 32.2465 134.518 60.3491 162.621C88.4517 190.724 134.015 190.724 162.118 162.621Z" fill="#0F0F0F"/>
<path opacity="0.96" d="M160.778 161.288C188.881 133.185 188.881 87.6217 160.778 59.5191C132.675 31.4165 87.112 31.4165 59.0094 59.5191C30.9068 87.6217 30.9067 133.185 59.0093 161.288C87.1119 189.39 132.675 189.39 160.778 161.288Z" fill="#0A0A0A"/>
<path opacity="0.98" d="M159.434 159.945C187.537 131.842 187.537 86.2787 159.434 58.1761C131.331 30.0735 85.7681 30.0735 57.6655 58.1761C29.5629 86.2787 29.5629 131.842 57.6655 159.945C85.7681 188.047 131.331 188.047 159.434 159.945Z" fill="#050505"/>
<path d="M158.094 158.598C186.197 130.495 186.197 84.9316 158.094 56.829C129.992 28.7264 84.4283 28.7265 56.3257 56.8291C28.2231 84.9317 28.2231 130.495 56.3257 158.598C84.4283 186.7 129.992 186.7 158.094 158.598Z" fill="black"/>
</g>
<path d="M160.575 160.575C190.136 131.014 190.136 83.0862 160.575 53.5251C131.014 23.9641 83.086 23.964 53.525 53.5251C23.9639 83.0861 23.964 131.014 53.525 160.575C83.0861 190.136 131.014 190.136 160.575 160.575Z" fill="url(#paint0_linear_2498_3281)"/>
<path d="M157.659 157.658C185.609 129.708 185.609 84.3921 157.659 56.4422C129.709 28.4924 84.3936 28.4924 56.4437 56.4423C28.4938 84.3922 28.4938 129.708 56.4437 157.658C84.3936 185.608 129.709 185.608 157.659 157.658Z" fill="url(#paint1_linear_2498_3281)"/>
<path d="M44.082 181.603L31.082 185.087L34.5659 172.087L44.082 181.603Z" fill="#4D4D4D"/>
<path d="M75.4079 117.087V113.307L81.3999 107.063C82.1279 106.316 82.6506 105.663 82.9679 105.103C83.2852 104.543 83.4439 103.974 83.4439 103.395C83.4439 102.686 83.2012 102.154 82.7159 101.799C82.2492 101.444 81.5679 101.267 80.6719 101.267C79.9252 101.267 79.1599 101.407 78.3759 101.687C77.6106 101.948 76.8359 102.378 76.0519 102.975L74.4559 99.2232C75.3332 98.5512 76.3879 98.0192 77.6199 97.6272C78.8519 97.2352 80.1212 97.0392 81.4279 97.0392C83.7239 97.0392 85.4692 97.5338 86.6639 98.5232C87.8772 99.5125 88.4839 100.94 88.4839 102.807C88.4839 104.002 88.2039 105.15 87.6439 106.251C87.1026 107.334 86.1972 108.491 84.9279 109.723L80.3359 114.203V112.887H89.2119V117.087H75.4079ZM98.693 117.395C96.2663 117.395 94.3996 116.508 93.093 114.735C91.805 112.943 91.161 110.414 91.161 107.147C91.161 103.843 91.805 101.332 93.093 99.6152C94.3996 97.8978 96.2663 97.0392 98.693 97.0392C101.138 97.0392 103.005 97.8978 104.293 99.6152C105.581 101.332 106.225 103.834 106.225 107.119C106.225 110.404 105.572 112.943 104.265 114.735C102.977 116.508 101.12 117.395 98.693 117.395ZM98.693 113.279C99.589 113.279 100.252 112.794 100.681 111.823C101.129 110.852 101.353 109.294 101.353 107.147C101.353 104.982 101.129 103.442 100.681 102.527C100.252 101.594 99.589 101.127 98.693 101.127C97.797 101.127 97.125 101.594 96.677 102.527C96.2476 103.442 96.033 104.972 96.033 107.119C96.033 109.284 96.2476 110.852 96.677 111.823C97.125 112.794 97.797 113.279 98.693 113.279ZM109.63 117.087V112.887H114.054V101.631H116.406L110.106 105.215V100.455L115.538 97.3472H119.206V112.887H123.322V117.087H109.63ZM133.055 117.395C130.442 117.395 128.426 116.527 127.007 114.791C125.588 113.036 124.879 110.572 124.879 107.399C124.879 105.215 125.243 103.358 125.971 101.827C126.718 100.278 127.763 99.0925 129.107 98.2712C130.47 97.4498 132.103 97.0392 134.007 97.0392C135.09 97.0392 136.154 97.2072 137.199 97.5432C138.263 97.8792 139.196 98.3832 139.999 99.0552L138.403 102.835C137.731 102.294 137.012 101.902 136.247 101.659C135.482 101.398 134.716 101.267 133.951 101.267C132.551 101.267 131.487 101.706 130.759 102.583C130.05 103.442 129.695 104.739 129.695 106.475V107.931H129.275C129.443 107.128 129.751 106.447 130.199 105.887C130.647 105.308 131.207 104.87 131.879 104.571C132.57 104.272 133.326 104.123 134.147 104.123C135.248 104.123 136.228 104.403 137.087 104.963C137.946 105.504 138.627 106.26 139.131 107.231C139.654 108.202 139.915 109.303 139.915 110.535C139.915 111.879 139.616 113.064 139.019 114.091C138.44 115.118 137.638 115.93 136.611 116.527C135.584 117.106 134.399 117.395 133.055 117.395ZM132.775 113.475C133.26 113.475 133.69 113.363 134.063 113.139C134.436 112.915 134.716 112.598 134.903 112.187C135.108 111.776 135.211 111.3 135.211 110.759C135.211 110.199 135.108 109.723 134.903 109.331C134.716 108.92 134.436 108.603 134.063 108.379C133.69 108.136 133.26 108.015 132.775 108.015C132.29 108.015 131.86 108.136 131.487 108.379C131.114 108.603 130.824 108.92 130.619 109.331C130.432 109.723 130.339 110.199 130.339 110.759C130.339 111.3 130.432 111.776 130.619 112.187C130.824 112.598 131.114 112.915 131.487 113.139C131.86 113.363 132.29 113.475 132.775 113.475Z" fill="#7070BA"/>
<defs>
<linearGradient id="paint0_linear_2498_3281" x1="52.0456" y1="47.0817" x2="165.099" y2="170.336" gradientUnits="userSpaceOnUse">
<stop stop-color="white"/>
<stop offset="0.37" stop-color="#FBFBFB"/>
<stop offset="0.7" stop-color="#F1F1F1"/>
<stop offset="1" stop-color="#DFDFDF"/>
</linearGradient>
<linearGradient id="paint1_linear_2498_3281" x1="55.1413" y1="54.7152" x2="158.844" y2="159.268" gradientUnits="userSpaceOnUse">
<stop stop-color="#DFDFDF"/>
<stop offset="0.3" stop-color="#F1F1F1"/>
<stop offset="0.63" stop-color="#FBFBFB"/>
<stop offset="1" stop-color="white"/>
</linearGradient>
</defs>
</svg>
